<svg width="329" height="149" viewBox="0 0 329 149" fill="none" xmlns="http://www.w3.org/2000/svg">
<mask id="mask0_7_221" style="mask-type:luminance" maskUnits="userSpaceOnUse" x="0" y="0" width="329" height="149">
<path d="M329 0H0V148.489H329V0Z" fill="white"/>
</mask>
<g mask="url(#mask0_7_221)">
<path d="M36.8728 31.3682C36.6151 31.8084 37.0231 32.3464 39.1275 34.4493C40.2871 35.5986 41.2534 36.6501 41.2534 36.7968C41.2534 37.1635 40.1153 37.0413 38.7195 36.5033C37.2379 35.9409 36.4863 36.0143 36.9802 36.6745C37.3452 37.188 38.4404 37.7259 41.597 38.9486C44.3886 40.0734 46.6218 41.3205 46.6218 41.8096C46.6218 42.3231 45.9776 42.2253 43.7229 41.3939C41.5755 40.6359 40.9313 40.5625 40.9313 41.1738C40.9313 41.5406 43.5726 42.861 45.3978 43.399C47.0513 43.9125 46.6003 44.2059 44.4315 44.0348C42.2627 43.8881 40.7166 44.2304 40.7166 44.8417C40.7166 45.1351 41.2105 45.2329 43.3793 45.2819C44.818 45.3063 46.5359 45.2329 47.1372 45.1107C47.8673 44.964 48.5974 44.964 49.2201 45.1107C50.2079 45.3797 55.1039 47.4582 56.6714 48.2895C57.6594 48.8275 57.8524 49.2432 57.0794 49.2432C56.3924 49.2432 52.5699 48.314 51.0239 47.7516C48.5759 46.8713 47.9746 47.3848 50.0789 48.5585C52.2049 49.7323 55.2329 50.7837 56.8219 50.8571C58.7974 50.9794 60.2574 51.3706 61.3954 52.1042C62.4909 52.8131 63.4569 52.7889 63.5429 52.031C63.5859 51.6397 63.2424 51.2483 61.8679 50.2213C59.8709 48.7297 59.1409 47.8494 58.3464 46.0154C57.6809 44.4749 56.9719 40.5625 56.7359 37.188C56.5639 34.6205 56.2634 33.8625 55.7264 34.6694C55.5334 34.9873 55.4259 35.7942 55.4259 37.0413C55.4259 38.0928 55.3184 39.022 55.2114 39.0953C55.0824 39.1687 54.8249 38.8752 54.6099 38.4351C54.0944 37.3103 51.0669 33.838 50.6159 33.838C50.3154 33.838 50.2724 33.9113 50.4439 34.1314C51.4964 35.6475 54.3524 40.2935 54.2664 40.3913C54.1159 40.5381 53.2144 39.8534 51.7109 38.4351C50.5084 37.2858 49.8428 37.0657 50.2509 37.9461C50.3584 38.1661 51.4964 39.511 52.7419 40.9293C55.3829 43.8881 56.5209 45.453 56.3494 45.9665C56.1559 46.5778 55.5979 46.3333 53.6009 44.8662C51.2814 43.1545 51.1954 43.0322 50.0574 40.5625C48.4041 36.9924 46.858 34.6694 46.5359 35.2562C46.493 35.354 46.858 36.5278 47.3734 37.8727C47.8673 39.2176 48.2538 40.4158 48.1894 40.5136C47.8887 41.1005 47.2016 40.1957 43.8732 34.7672C42.8854 33.1289 42.1124 32.6153 42.1124 33.569C42.1124 33.9847 42.2627 34.2537 43.7014 36.5278C44.4744 37.7504 44.2597 38.0928 43.3364 37.1147C42.9713 36.699 42.2197 35.9898 41.6829 35.5252C41.146 35.0606 39.965 33.8869 39.0416 32.9333C37.3667 31.1482 37.0875 30.9526 36.8728 31.3682Z" fill="#404625"/>
<path d="M63.779 37.7993C63.629 38.1172 63.457 39.4865 63.414 40.8803C63.35 42.2497 63.2425 43.4479 63.1565 43.4968C63.049 43.5701 62.362 42.861 61.589 41.9074C60.322 40.3423 59.7205 39.8533 59.7205 40.3913C59.7205 40.7336 61.0305 42.9832 61.718 43.8147C62.083 44.2548 62.9205 45.4774 63.586 46.5534C64.23 47.6048 65.4755 49.5366 66.356 50.8326C67.4725 52.5197 67.859 53.2776 67.709 53.4488C67.3655 53.8401 63.5215 54.2072 60.043 54.2315H57.0365L51.475 52.1042C48.4042 50.9304 45.8488 50.0256 45.8058 50.099C45.5482 50.3924 46.3856 51.0037 48.2968 51.933C51.1745 53.3756 54.567 55.3565 54.567 55.6251C54.567 55.9675 53.88 55.87 52.892 55.3565C51.797 54.794 48.2753 53.7427 46.6433 53.4978C45.2261 53.2776 45.1831 53.7912 46.5789 54.3294C48.0176 54.8672 47.6096 55.5766 45.8703 55.6009C45.5267 55.6009 45.0757 55.7231 44.904 55.8453C44.2812 56.3346 45.1616 56.5789 47.6526 56.6032C48.9625 56.6279 50.165 56.6769 50.2725 56.7011C50.401 56.7259 50.659 56.7743 50.852 56.7991C51.6465 56.8481 50.7235 57.3368 49.0698 57.7039C47.1372 58.1195 45.6555 57.9726 41.597 56.9213C39.1276 56.2856 38.3545 56.2366 38.3545 56.7991C38.3545 56.9945 39.149 57.459 40.373 57.9483C41.4682 58.3886 42.4989 58.8774 42.6278 59.0486C42.8854 59.3667 42.864 59.3667 38.0324 58.682C33.9524 58.0953 33.8236 58.0953 33.5015 58.3149C32.9861 58.6573 33.5445 58.9754 35.3482 59.3909C37.7747 59.9292 41.7044 60.9805 42.2842 61.2496C43.1861 61.6404 42.5848 62.0318 41.2749 61.8606C38.4619 61.543 32.0198 61.3961 32.0198 61.6652C32.0198 61.8116 32.3419 62.0318 32.7285 62.154C33.0935 62.2767 33.9954 62.5943 34.704 62.8144C35.4127 63.0588 36.2931 63.4744 36.6366 63.7683L37.2808 64.2818L35.1764 64.4282C32.8573 64.5752 32.3419 64.8438 33.115 65.4795C33.3941 65.6997 33.8236 65.8708 34.0598 65.8708C34.296 65.8708 34.6396 65.993 34.8114 66.1157C35.3697 66.5313 34.704 66.7757 32.0413 67.0938C27.446 67.6073 26.8447 67.7048 26.8018 67.9497C26.7803 68.0961 27.811 68.3163 29.2283 68.4632C30.5811 68.6344 31.7621 68.7566 31.8695 68.7808C32.1701 68.8298 32.0198 69.7346 31.6763 69.8811C31.483 69.9548 30.9462 70.028 30.4523 70.028C28.3908 70.0522 25.0195 71.4464 25.5563 72.0574C25.7066 72.2285 26.3079 72.1796 27.5963 71.9109C29.5933 71.4464 30.3019 71.3974 30.3019 71.6908C30.3019 71.7887 29.3786 72.9132 28.262 74.1847C26.4797 76.2145 25.7925 77.3638 26.3938 77.3638C26.63 77.3638 30.1516 73.7691 31.2253 72.4245C31.6548 71.8862 32.0843 71.4949 32.1487 71.5686C32.2346 71.6418 32.0843 72.3997 31.8266 73.2314C30.7314 76.9235 31.5904 76.7523 33.5015 72.9132C34.9832 69.9058 36.744 67.3134 38.5263 65.4795C40.3516 63.6213 43.6155 62.2277 43.6155 63.328C43.6155 63.9395 41.6829 66.9716 40.9528 67.5094C40.5878 67.7785 39.4712 68.5364 38.4834 69.1964C36.8299 70.2971 36.2931 70.8349 36.5937 71.153C36.6581 71.2262 37.1735 71.0551 37.7103 70.7859C39.1061 70.077 39.3853 70.1012 39.0632 70.8839C38.8699 71.3727 38.8699 71.5686 39.0846 71.813C39.2994 72.0331 39.6429 71.764 40.7381 70.3946C42.8854 67.7538 44.3242 65.6507 45.2261 63.9147C46.6004 61.2007 47.6955 59.8555 47.6955 60.8825C47.6955 61.592 44.6248 67.3872 43.0358 69.7099C42.1768 70.9818 41.4682 72.1063 41.4682 72.2285C41.4682 72.6688 41.8547 72.4734 42.9069 71.5196C44.3456 70.2234 45.1616 69.1721 46.085 67.4604C48.49 63.0836 50.5945 59.6843 51.26 59.0976C52.527 58.0215 54.9965 57.5328 54.9965 58.3886C54.9965 58.5351 54.417 59.2445 53.708 59.9777C52.978 60.6871 51.926 61.9828 51.346 62.8634C49.4993 65.6507 50.1435 65.6754 52.5915 62.9366C53.193 62.2519 53.708 61.7874 53.708 61.9096C53.708 62.0318 53.3215 62.8144 52.849 63.6456C51.0885 66.7267 50.0575 69.5387 50.6805 69.5387C50.895 69.5387 52.248 67.4362 53.2145 65.6265C53.5365 65.015 54.331 63.7193 54.975 62.7165C55.641 61.7142 56.414 60.516 56.693 60.0267C58.003 57.7529 58.6685 57.2879 61.6105 56.4567C64.6165 55.6251 64.7885 55.6009 64.939 55.7478C65.218 56.0654 64.3805 57.0192 63.715 57.1657C62.534 57.4106 56.2205 63.9147 56.9505 64.0859C57.423 64.2081 60.0645 62.2767 61.9325 60.4427C62.7485 59.6601 63.5 59.0733 63.6075 59.1708C63.7365 59.2445 63.715 59.4642 63.543 59.7091C62.555 61.2007 60.5155 63.9147 59.9355 64.5262C58.5395 66.0178 57.1225 68.8056 57.7665 68.8056C58.0675 68.8056 64.488 61.0785 65.089 59.9777C67.301 55.9675 67.859 55.2343 68.31 55.7478C68.4605 55.919 68.2245 56.53 67.6015 57.6792C66.3775 59.9535 65.6475 61.9586 65.905 62.2519C66.227 62.619 66.485 62.3499 67.1935 60.8825C68.074 59.1466 69.899 56.6769 70.651 56.2366C70.973 56.0412 72.24 55.7478 73.464 55.6009C75.869 55.3317 76.5775 54.9894 75.912 54.4516C75.654 54.2315 74.7305 54.1335 72.9915 54.1335H70.479L70.1785 53.4488C69.835 52.7156 69.491 51.0037 69.2765 49.1698C69.1045 47.7271 68.675 47.7515 68.5035 49.2187C68.31 50.8326 68.0095 50.9304 67.3225 49.61C67.0005 48.9741 66.356 47.4581 65.905 46.2599C65.218 44.4504 65.046 43.619 64.853 41.4672C64.488 37.0168 64.359 36.5767 63.779 37.7993Z" fill="#404625"/>
<path d="M92.79 44.2794C91.9095 45.3308 90.707 46.5779 90.1275 47.0425C89.569 47.5071 88.753 48.2407 88.3235 48.6564C85.9185 50.9305 81.7094 53.8402 76.7494 56.6522C73.6354 58.413 69.491 61.4209 68.6965 62.4964C68.203 63.1321 68.1385 65.9931 68.611 66.1891C68.761 66.2623 69.3625 65.822 69.942 65.211C70.9515 64.135 71.8959 63.5725 76.6849 61.1028C77.9089 60.4671 79.1545 59.7824 79.412 59.5622C79.8845 59.2446 79.992 59.2446 80.679 59.6602C81.13 59.9536 81.4735 60.3691 81.538 60.7362C81.7525 61.9097 82.1175 62.448 82.8905 62.7166C83.32 62.8635 83.7925 63.1079 83.943 63.2549C84.2865 63.5725 84.265 64.4283 83.8785 65.064C83.4705 65.7245 83.5995 66.0911 84.5225 66.8005C85.2955 67.4115 85.897 67.3873 86.627 66.6536C87.0565 66.2133 87.0779 65.3822 86.7559 63.3281C86.6269 62.4964 86.477 61.6163 86.434 61.323C86.391 61.0538 86.1329 60.6872 85.8539 60.5161C85.0809 60.0515 83.728 57.6303 83.9 57.0194C83.9645 56.7502 84.4585 56.3099 84.995 56.0413C85.532 55.7721 86.5195 55.0385 87.207 54.427C87.894 53.7913 89.7195 52.5198 91.2655 51.615C93.5845 50.2213 94.1 49.8301 94.2285 49.2921C94.293 48.9254 94.6795 47.8739 95.0875 46.9202C95.9035 44.964 96.0325 43.4479 95.41 42.8121C95.195 42.5677 94.873 42.3965 94.7225 42.3965C94.551 42.3965 93.692 43.2523 92.79 44.2794Z" fill="#563A1E"/>
<path d="M73.464 65.5775C71.982 66.4091 72.562 67.167 74.967 67.4604C75.869 67.5584 76.32 67.5094 76.8995 67.167C77.866 66.6045 78.0375 65.7244 77.2215 65.3821C76.32 64.9907 74.3015 65.0887 73.464 65.5775Z" fill="#563A1E"/>
<path d="M63.264 66.2622C62.362 66.8248 62.04 67.3383 62.319 67.7538C62.448 67.925 62.7055 68.072 62.856 68.072C63.0275 68.072 63.414 68.3896 63.7365 68.8056C64.4665 69.7347 64.9605 69.7347 65.755 68.7567C66.442 67.876 66.571 66.849 66.0555 66.3602C65.54 65.8709 63.994 65.8219 63.264 66.2622Z" fill="#563A1E"/>
<path d="M78.0805 67.4847C77.007 67.9497 76.0405 68.9768 76.0405 69.7099C76.0405 70.0281 76.2555 70.5168 76.4915 70.786C76.921 71.2753 77.093 71.2995 79.0255 71.1531C80.808 71.0061 81.237 71.0304 82.053 71.4464C82.59 71.715 83.213 72.1554 83.4275 72.4487C83.986 73.1582 84.759 73.1092 85.1885 72.3508C86.069 70.8107 84.501 68.2183 82.268 67.5336C80.7435 67.0449 79.1545 67.0201 78.0805 67.4847Z" fill="#563A1E"/>
<path d="M69.9205 67.7539C68.718 67.925 67.086 68.5608 66.528 69.0743C66.0555 69.4899 65.948 69.7837 65.948 70.6638C65.948 71.7641 66.3775 73.2557 66.764 73.5491C66.893 73.6228 67.4085 73.5006 67.9235 73.2557C68.611 72.9134 69.491 72.7912 71.424 72.7422C74.4945 72.6932 74.967 72.4736 74.967 71.0304C74.967 70.2973 74.8165 69.9302 74.28 69.3192C73.378 68.3164 71.295 67.5585 69.9205 67.7539Z" fill="#563A1E"/>
<path d="M60.043 70.077C58.862 70.7617 58.089 71.6175 57.2515 73.2066C56.3925 74.8209 56.1345 76.0923 56.521 76.8992C56.865 77.6819 57.1225 77.853 57.9385 77.853C58.4755 77.853 58.7975 77.6329 59.4845 76.728C59.9785 76.0923 60.365 75.5056 60.365 75.3829C60.365 74.9921 61.825 74.2094 62.8775 74.0382C64.531 73.7938 64.7455 73.5489 64.574 72.1063C64.3375 70.3456 63.543 69.5387 62.04 69.5387C61.3315 69.5634 60.5795 69.7589 60.043 70.077Z" fill="#563A1E"/>
<path d="M86.842 69.7835C85.6395 70.3213 86.0905 71.8371 87.8725 73.3292C89.204 74.4537 90.106 74.6981 90.5995 74.1361C91.244 73.4024 90.557 71.5437 89.2685 70.5414C88.2375 69.7345 87.486 69.5144 86.842 69.7835Z" fill="#563A1E"/>
<path d="M74.6665 73.4267C73.421 74.0134 72.476 74.9672 72.283 75.8479C72.111 76.6548 72.283 76.8012 73.7215 76.9724C76.277 77.3147 77.415 77.6081 78.1665 78.1706C80.2925 79.7112 81.5165 79.8823 82.2035 78.6841C82.547 78.0726 82.547 77.9994 82.032 76.9234C80.829 74.3315 79.3905 73.1823 77.1145 73.0353C76.0835 72.9869 75.4395 73.0843 74.6665 73.4267Z" fill="#563A1E"/>
<path d="M83.3845 74.3075C82.0745 74.9675 82.354 76.0435 83.9645 76.606C84.437 76.7524 85.317 77.266 85.9185 77.7305C87.443 78.9045 88.839 79.4422 89.848 79.2221C90.2775 79.1246 90.6425 78.9287 90.6425 78.7575C90.6425 78.3178 89.4615 76.0925 88.9675 75.5789C88.388 74.9675 85.768 73.9404 84.845 73.9652C84.437 73.9652 83.771 74.1116 83.3845 74.3075Z" fill="#563A1E"/>
<path d="M63.8005 75.1386C63.1565 75.3588 62.405 75.7011 62.126 75.8723C60.966 76.5812 60.4295 78.8555 61.1165 79.9805C61.5675 80.7136 63.221 81.5211 64.2515 81.5211C65.046 81.5211 66.807 81.0807 67.8805 80.5914C69.3195 79.9557 70.8655 76.8746 70.2215 75.9945C69.2765 74.6983 66.1415 74.2827 63.8005 75.1386Z" fill="#563A1E"/>
<path d="M90.428 75.2855C90.2775 75.4809 90.213 75.8233 90.299 76.0192C90.471 76.5322 93.9495 79.0756 94.4865 79.0756C95.56 79.0756 94.701 76.6059 93.241 75.4809C92.382 74.821 90.836 74.723 90.428 75.2855Z" fill="#563A1E"/>
<path d="M71.875 78.4399C70.6295 78.9777 69.942 79.6134 69.6845 80.5425C69.3625 81.6432 69.491 81.9856 70.6295 83.0859C71.5525 83.966 71.6815 84.0149 72.798 83.917C73.6785 83.8438 74.28 83.5994 75.0745 83.0126C76.019 82.3279 76.277 82.23 77.136 82.3522C78.4885 82.5476 79.2615 82.2058 79.2615 81.3983C79.2615 80.5672 78.725 80.0295 76.9855 79.0509C75.289 78.0976 73.2705 77.8532 71.875 78.4399Z" fill="#563A1E"/>
<path d="M55.9845 78.831C53.9445 79.3688 53.1715 79.9555 53.1715 80.9336C53.1715 81.8384 53.558 81.9117 55.9845 81.5208C58.647 81.0805 59.871 79.9555 58.9475 78.8063C58.518 78.2685 58.2175 78.2685 55.9845 78.831Z" fill="#563A1E"/>
<path d="M83.0194 79.6872C82.0319 80.127 81.4734 80.6895 81.3659 81.3742C81.3014 81.8145 81.8814 82.328 83.8569 83.6237C84.6299 84.113 88.7529 84.2842 89.3114 83.8196C89.8264 83.4035 89.7409 82.0099 89.1394 81.105C88.8819 80.6653 88.2589 80.127 87.7649 79.9068C86.5409 79.3448 84.0929 79.2221 83.0194 79.6872Z" fill="#563A1E"/>
<path d="M93.284 79.9555C93.112 80.4691 94.293 83.0857 95.195 84.2349C96.011 85.2372 96.5265 85.115 96.6125 83.8436C96.7195 82.0586 95.4955 80.0777 94.0355 79.6622C93.5845 79.54 93.4125 79.6132 93.284 79.9555Z" fill="#563A1E"/>
<path d="M90.3635 80.9583C90.0845 81.2759 90.213 81.8142 90.879 82.8897C91.523 83.9657 91.523 84.0147 91.2655 85.1887C91.029 86.2889 91.029 86.4354 91.394 86.9004C91.9095 87.5604 92.597 87.5114 93.284 86.8025C94.4435 85.5795 94.2075 83.8925 92.618 81.9606C91.931 81.1295 91.5015 80.7871 91.072 80.7871C90.75 80.7871 90.428 80.8603 90.3635 80.9583Z" fill="#563A1E"/>
<path d="M58.2175 81.7896C54.846 82.9146 53.107 84.186 52.6775 85.8736C52.0545 88.221 52.5055 88.8568 54.739 88.8568C57.38 88.8568 59.7205 87.6585 62.2975 84.9929C63.307 83.9417 63.4355 83.6973 63.2425 83.3059C62.598 82.0587 59.871 81.2271 58.2175 81.7896Z" fill="#563A1E"/>
<path d="M65.39 83.7459C63.0705 85.14 61.825 86.216 61.5245 87.0472C61.095 88.2212 61.1595 89.4189 61.675 90.1773C62.0615 90.7398 62.276 90.813 63.3925 90.813C64.81 90.813 66.1845 90.2505 67.988 88.9543C68.5895 88.5145 69.749 87.9763 70.5435 87.7076C71.4025 87.4627 72.1325 87.0714 72.2615 86.827C72.7335 85.9469 70.522 84.3573 67.1075 83.1349C66.807 83.0369 66.227 83.2323 65.39 83.7459Z" fill="#563A1E"/>
<path d="M76.6634 84.3083C75.8044 84.6507 74.8379 85.3601 74.2799 86.0933C73.9359 86.5336 73.9359 86.6068 74.2584 87.1203C74.6664 87.7808 76.1264 88.5877 76.9424 88.6119C77.2644 88.6119 78.2094 88.3186 79.0469 87.9762C80.4639 87.3652 80.6575 87.3405 81.581 87.6339C83.1485 88.0984 85.081 88.2211 85.2955 87.854C85.7465 87.0229 84.1789 85.2622 82.2679 84.4305C80.9794 83.8685 77.8874 83.7948 76.6634 84.3083Z" fill="#563A1E"/>
<path d="M86.262 85.5063C85.661 86.0198 86.0045 86.8025 87.2715 87.7558C88.066 88.3673 88.624 88.6117 89.204 88.6117C90.1915 88.6117 90.428 88.1229 89.9125 87.0469C89.1825 85.4821 87.25 84.6752 86.262 85.5063Z" fill="#563A1E"/>
<path d="M92.2315 88.2453C91.7595 88.6366 91.652 88.3185 93.5415 91.9131C95.1735 94.9943 95.732 95.5321 96.2475 94.4318C96.591 93.6739 96.333 91.2527 95.732 89.908C94.9805 88.1963 93.2625 87.3652 92.2315 88.2453Z" fill="#563A1E"/>
<path d="M70.1355 88.8319C69.126 89.3454 67.666 91.0819 67.043 92.4997C66.442 93.7959 66.4635 94.0161 67.258 94.872C67.859 95.5319 68.0525 95.5809 69.7705 95.6541C70.801 95.7031 72.2615 95.6299 73.0345 95.5077C74.4085 95.2633 76.835 94.3827 77.1785 94.0161C77.372 93.7959 76.6205 91.4974 76.019 90.5436C75.783 90.177 75.01 89.5413 74.28 89.1252C72.7335 88.2451 71.4455 88.1472 70.1355 88.8319Z" fill="#563A1E"/>
<path d="M79.2185 89.0764C78.424 89.3703 77.1145 90.2994 77.1145 90.5927C77.1145 90.6907 77.3935 91.033 77.737 91.3264C78.059 91.595 78.725 92.3777 79.176 93.0624C80.2925 94.7499 81.1945 95.1655 83.7065 95.1655C86.176 95.1897 86.3265 95.0433 85.811 93.1604C85.2745 91.2527 84.7805 90.4458 83.685 89.7126C82.633 89.0032 80.2925 88.6856 79.2185 89.0764Z" fill="#563A1E"/>
<path d="M57.0365 89.81C56.113 90.2746 54.3525 92.3287 53.7725 93.6001C53.2355 94.7741 53.064 95.7032 53.2785 96.3389C53.5795 97.2195 54.159 97.0483 55.19 95.8254C55.791 95.0922 56.3925 94.6519 56.9935 94.4807C59.6995 93.6738 60.365 93.0871 60.365 91.4975C60.365 89.957 59.914 89.3455 58.7975 89.3702C58.3035 89.3702 57.509 89.5899 57.0365 89.81Z" fill="#563A1E"/>
<path d="M87.2285 89.6636C86.1975 90.2745 86.176 90.7148 87.121 91.8398C87.615 92.4266 88.066 93.1845 88.1515 93.5516C88.216 93.9182 88.6455 94.6761 89.118 95.2144C89.9125 96.1677 89.9555 96.1924 91.437 96.1924C93.198 96.1924 93.5415 95.9233 93.327 94.6761C93.155 93.7228 92.382 92.1574 91.566 91.0329C90.4925 89.5898 88.4525 88.9541 87.2285 89.6636Z" fill="#563A1E"/>
<path d="M61.8895 93.0871C59.7635 94.3338 58.6685 95.483 57.8955 97.2927C57.38 98.4662 57.3585 98.6864 57.5735 99.6402C57.831 100.716 58.518 101.817 58.9475 101.817C59.2915 101.817 64.2085 97.1948 64.724 96.3879C65.1965 95.679 65.3685 92.9891 64.982 92.5488C64.4235 91.9373 63.672 92.0601 61.8895 93.0871Z" fill="#563A1E"/>
<path d="M74.3015 96.6323C73.786 97.0237 72.648 98.0997 71.8105 99.0535C70.35 100.643 70.243 100.838 70.243 101.792C70.243 103.21 70.5005 103.626 71.7675 104.408C72.3685 104.8 72.9915 105.411 73.163 105.778C73.571 106.658 74.43 107.147 75.9335 107.343L77.136 107.514L78.145 106.316C79.4765 104.727 80.4425 102.574 80.2495 101.547C80.013 100.227 76.3625 95.9476 75.4395 95.9476C75.3535 95.9476 74.838 96.2658 74.3015 96.6323Z" fill="#563A1E"/>
<path d="M65.1535 96.9015C64.445 97.415 64.08 97.9285 62.3835 100.936C61.1165 103.186 61.1165 103.871 62.3835 105.069C62.9205 105.558 63.4355 105.974 63.543 105.974C63.951 105.974 66.936 103.381 68.525 101.67C70.4145 99.616 71.424 98.0755 71.252 97.5619C71.0805 97.0726 69.8565 96.7303 67.666 96.5591C66.0555 96.4127 65.755 96.4612 65.1535 96.9015Z" fill="#563A1E"/>
<path d="M87.5505 96.6569C87.3785 96.9745 87.6365 97.586 88.8175 99.4932C89.9555 101.327 90.3205 102.183 90.514 103.332C90.664 104.311 91.6305 105.582 92.382 105.851C93.155 106.145 93.9065 105.044 94.0355 103.455C94.1645 101.718 93.7995 100.52 92.7685 99.2488C91.5445 97.7572 87.937 95.9475 87.5505 96.6569Z" fill="#563A1E"/>
<path d="M79.7125 97.0972C79.2615 97.5128 79.24 97.635 79.4765 98.0753C79.648 98.3439 80.0559 98.7842 80.4209 99.0286C81.7739 99.9335 84.136 102.086 84.802 103.039C85.6825 104.262 87.207 105.289 88.0015 105.191C88.581 105.118 88.6025 105.044 88.667 103.724C88.753 102.061 88.0875 100.374 86.9275 99.1998C84.9305 97.1947 80.872 96.0212 79.7125 97.0972Z" fill="#563A1E"/>
<path d="M58.9475 102.917C57.5735 104.555 57.0365 107.025 57.788 108.395C58.196 109.128 58.325 109.201 59.012 109.079C59.9355 108.908 60.6655 108.37 61.1595 107.539C61.503 106.927 61.503 106.854 60.9445 105.631C60.451 104.58 60.3865 104.188 60.5155 103.088C60.6225 101.964 60.601 101.817 60.2575 101.817C60.043 101.817 59.4415 102.305 58.9475 102.917Z" fill="#563A1E"/>
<path d="M81.1945 103.773C80.5285 104.604 79.8415 106.634 79.949 107.49C79.992 107.808 80.464 108.37 81.173 108.932C82.225 109.764 82.869 110.546 84.0505 112.454C84.7805 113.627 85.9615 113.016 85.983 111.451C85.983 108.859 85.6395 106.927 84.995 105.827C84.3295 104.678 82.633 103.039 82.1175 103.039C81.946 103.039 81.5165 103.381 81.1945 103.773Z" fill="#563A1E"/>
<path d="M68.117 104.115C67.3225 104.408 67.172 104.629 66.8285 106.145C66.6995 106.707 66.27 107.588 65.862 108.125C65.1105 109.177 64.4665 111.231 64.7885 111.573C64.896 111.695 65.712 111.964 66.614 112.209C68.482 112.698 68.31 112.747 71.016 110.717C72.5405 109.544 73.249 108.664 73.249 107.93C73.249 107.636 70.114 104.58 69.384 104.14C68.976 103.895 68.675 103.895 68.117 104.115Z" fill="#563A1E"/>
<path d="M86.348 106.34C86.348 107.685 87.5075 111.427 88.1945 112.258C88.989 113.212 89.118 113.236 89.848 112.576C90.471 112.013 90.75 110.815 90.5355 109.69C90.299 108.419 87.701 105.729 86.7345 105.729C86.4555 105.729 86.348 105.925 86.348 106.34Z" fill="#563A1E"/>
<path d="M63.049 107.196C62.813 107.294 62.1045 108.003 61.4815 108.737C59.957 110.498 59.6995 111.72 60.408 113.847C60.6655 114.63 61.052 114.825 61.7605 114.532C62.4695 114.214 62.856 113.481 63.2855 111.524C63.4785 110.595 63.865 109.471 64.1445 109.006C64.724 108.052 64.767 107.661 64.402 107.245C64.1015 106.903 63.672 106.903 63.049 107.196Z" fill="#563A1E"/>
<path d="M74.9669 109.054C73.4639 109.788 72.7119 110.986 72.4974 112.967C72.3684 114.018 72.4329 114.312 72.9914 115.29C73.7429 116.61 74.9454 117.222 76.7919 117.222C78.5959 117.222 79.4764 116.097 79.4764 113.749C79.4764 112.233 78.9609 110.84 77.9734 109.568C77.4149 108.835 77.1359 108.663 76.4914 108.663C76.0619 108.688 75.3749 108.859 74.9669 109.054Z" fill="#563A1E"/>
<path d="M80.4855 111.524C80.4 111.598 80.3355 112.136 80.3355 112.674C80.357 113.97 82.182 118.86 82.848 119.349C83.277 119.692 83.363 119.667 83.8355 119.08C84.4155 118.371 84.63 117.491 84.63 115.755C84.63 114.605 84.6085 114.556 82.9765 112.967C81.409 111.451 80.829 111.133 80.4855 111.524Z" fill="#563A1E"/>
<path d="M69.4055 113.407C68.7825 114.043 68.2245 114.532 68.1385 114.532C68.0525 114.532 67.5155 114.263 66.936 113.92C65.669 113.187 65.0675 113.162 64.595 113.749C64.2945 114.116 64.273 114.361 64.4665 115.143C64.767 116.342 65.6905 117.857 66.721 118.787C67.4085 119.422 67.623 119.471 68.6325 119.349C70.4575 119.129 70.5865 118.982 71.1015 116.415C71.5955 113.969 71.5095 112.527 70.844 112.38C70.651 112.331 70.0065 112.796 69.4055 113.407Z" fill="#563A1E"/>
<path d="M78.059 117.931C77.329 118.322 76.685 118.762 76.599 118.909C76.4055 119.251 77.1145 121.476 77.651 122.259C77.9735 122.724 78.36 122.919 79.0685 123.017C79.9705 123.139 80.099 123.09 80.6145 122.357C81.366 121.33 81.5165 120.572 81.1945 119.349C80.6145 117.026 80.1635 116.83 78.059 117.931Z" fill="#563A1E"/>
<path d="M71.746 117.955C71.0805 118.713 71.166 120.278 71.9605 121.697C72.691 123.042 73.099 123.115 74.5375 122.283C75.461 121.77 75.504 121.697 75.568 120.596C75.654 119.105 75.3535 118.518 74.2585 117.931C73.099 117.344 72.283 117.344 71.746 117.955Z" fill="#563A1E"/>
<path d="M69.0829 120.547C68.6964 120.963 68.6324 122.259 68.9329 123.164C69.1904 123.922 70.3714 124.459 70.8224 124.02C71.2519 123.604 71.0374 122.283 70.3499 121.11C69.7489 120.058 69.5769 119.985 69.0829 120.547Z" fill="#563A1E"/>
<path d="M74.5374 123.164C74.0004 123.457 73.5279 123.898 73.5069 124.142C73.3564 124.973 75.0959 126.587 75.8259 126.318C76.3839 126.123 77.3289 124.973 77.3289 124.484C77.3289 123.971 76.2124 122.602 75.7829 122.602C75.6324 122.626 75.0744 122.871 74.5374 123.164Z" fill="#563A1E"/>
<path d="M121.499 103.055C120.027 103.054 119.291 102.228 119.292 100.579L119.311 70.4353C119.312 69.5114 119.472 68.8679 119.793 68.5055C120.145 68.1425 120.689 67.9615 121.425 67.962C123.473 67.9631 124.496 69.2345 124.494 71.7753L124.476 100.434L136.044 100.441L136.063 70.9416C136.064 69.7537 136.304 68.9618 136.785 68.5663C137.297 68.1708 138.049 67.9734 139.041 67.9739C140.513 67.9749 141.248 68.8004 141.247 70.4503L141.228 100.445L152.796 100.453L152.815 71.2004C152.816 70.0125 153.056 69.1876 153.536 68.7261C154.049 68.2312 154.801 67.9842 155.793 67.9852C157.265 67.9863 158 68.8117 157.999 70.4616L157.98 100.605C157.979 102.255 157.243 103.079 155.771 103.078L121.499 103.055ZM187.109 100.773C187.109 101.499 186.98 102.076 186.724 102.505C186.468 102.901 185.956 103.098 185.188 103.098C184.132 103.097 183.348 102.8 182.836 102.205C182.357 101.578 182.117 100.522 182.118 99.037L182.127 84.881L171.269 101.802C170.756 102.659 169.844 103.087 168.532 103.086C167.764 103.086 167.252 102.888 166.996 102.491C166.74 102.062 166.613 101.485 166.613 100.759L166.626 80.5645C166.627 79.8056 166.755 79.2281 167.011 78.8321C167.267 78.4367 167.78 78.2387 168.548 78.2392C169.604 78.2403 170.371 78.5542 170.851 79.1812C171.363 79.7757 171.618 80.8151 171.617 82.3L171.608 96.6539L182.419 79.7339C182.771 79.173 183.139 78.794 183.523 78.596C183.908 78.3655 184.468 78.2501 185.204 78.2506C185.972 78.2511 186.483 78.4496 186.739 78.8456C186.995 79.242 187.123 79.8195 187.122 80.5784L187.109 100.773ZM196.704 103.105C195.936 103.105 195.424 102.907 195.168 102.51C194.912 102.081 194.785 101.504 194.785 100.778L194.798 80.5836C194.798 79.8247 194.927 79.2472 195.183 78.8512C195.439 78.4558 195.951 78.2578 196.719 78.2583C197.775 78.2593 198.543 78.5733 199.023 79.2003C199.535 79.7947 199.79 80.8342 199.789 82.3191L199.777 100.781L207.217 100.786L207.23 81.3838C207.23 80.0969 207.439 79.2554 207.855 78.86C208.303 78.4645 208.911 78.2666 209.679 78.2671C210.543 78.2676 211.167 78.4661 211.551 78.8626C211.967 79.2585 212.174 80.1005 212.174 81.3874L212.161 100.79L219.601 100.795L219.613 81.788C219.614 80.3031 219.855 79.3467 220.335 78.9177C220.847 78.4893 221.631 78.2753 222.687 78.2758C223.455 78.2763 223.967 78.4749 224.223 78.8708C224.479 79.2673 224.606 79.8448 224.606 80.6037L224.593 100.798C224.593 101.524 224.464 102.102 224.208 102.53C223.952 102.926 223.44 103.123 222.672 103.123L196.704 103.105ZM237.285 88.9273L238.869 88.9289L247.274 80.3222C248.011 79.5968 248.635 79.0853 249.147 78.7888C249.691 78.4594 250.251 78.2944 250.827 78.2949C251.307 78.2954 251.643 78.4109 251.835 78.6424C252.059 78.8734 252.171 79.1704 252.171 79.5333C252.17 80.1933 251.882 80.7873 251.306 81.3147C250.761 81.8091 250.025 82.3696 249.096 82.996C248.168 83.5895 247.16 84.3639 246.071 85.3203C245.335 85.9797 244.646 86.6227 244.006 87.2491C243.397 87.8425 242.741 88.4695 242.037 89.1289L251.485 100.618C251.741 100.948 251.949 101.246 252.109 101.51C252.269 101.741 252.348 101.972 252.348 102.203C252.348 102.434 252.22 102.648 251.964 102.846C251.74 103.044 251.1 103.143 250.044 103.142C248.892 103.141 248.076 103.009 247.596 102.744C247.148 102.447 246.748 102.067 246.397 101.605L238.435 91.2547L237.283 91.2537L237.278 99.6185C237.277 101.103 237.02 102.06 236.508 102.489C236.028 102.918 235.26 103.132 234.204 103.131C233.436 103.13 232.924 102.932 232.668 102.536C232.412 102.107 232.285 101.529 232.285 100.803L232.298 80.6089C232.298 79.8499 232.427 79.2725 232.683 78.8765C232.939 78.481 233.451 78.283 234.219 78.2836C235.275 78.2846 236.043 78.5986 236.523 79.2255C237.035 79.82 237.29 80.8594 237.289 82.3443L237.285 88.9273ZM277.625 100.834C277.624 101.56 277.496 102.137 277.24 102.566C276.984 102.962 276.471 103.16 275.703 103.159C274.647 103.158 273.864 102.861 273.352 102.267C272.872 101.639 272.633 100.583 272.634 99.0983L272.643 84.9424L261.784 101.863C261.272 102.72 260.359 103.149 259.047 103.148C258.279 103.147 257.768 102.949 257.512 102.553C257.256 102.124 257.128 101.546 257.129 100.82L257.142 80.6254C257.142 79.8664 257.271 79.2895 257.527 78.8935C257.783 78.4975 258.295 78.3001 259.063 78.3006C260.119 78.3011 260.887 78.6151 261.367 79.2426C261.878 79.837 262.134 80.8764 262.133 82.3613L262.124 96.7153L272.934 79.7947C273.287 79.2343 273.655 78.8548 274.039 78.6574C274.423 78.4264 274.983 78.3114 275.719 78.3119C276.487 78.3124 276.999 78.5104 277.255 78.9069C277.511 79.3029 277.638 79.8803 277.638 80.6393L277.625 100.834Z" fill="#404625"/>
</g>
</svg>
