<svg width="343" height="150" viewBox="0 0 343 150" fill="none" xmlns="http://www.w3.org/2000/svg">
<mask id="mask0_7_316" style="mask-type:luminance" maskUnits="userSpaceOnUse" x="0" y="0" width="343" height="150">
<path d="M342.708 0H0V150H342.708V0Z" fill="white"/>
</mask>
<g mask="url(#mask0_7_316)">
<path d="M38.4092 31.6873C38.1408 32.1319 38.5658 32.6753 40.7579 34.7997C41.9658 35.9606 42.9724 37.0228 42.9724 37.171C42.9724 37.5415 41.7869 37.418 40.3329 36.8746C38.7895 36.3065 38.0066 36.3806 38.5211 37.0475C38.9013 37.5663 40.0421 38.1097 43.3302 39.3448C46.2382 40.481 48.5645 41.7408 48.5645 42.2349C48.5645 42.7536 47.8934 42.6548 45.5447 41.8149C43.3079 41.0492 42.6369 40.9751 42.6369 41.5926C42.6369 41.9631 45.3882 43.297 47.2895 43.8404C49.0118 44.3592 48.5421 44.6556 46.2829 44.4827C44.0237 44.3345 42.4132 44.6803 42.4132 45.2978C42.4132 45.5942 42.9276 45.693 45.1868 45.7425C46.6855 45.7672 48.475 45.693 49.1013 45.5695C49.8618 45.4213 50.6223 45.4213 51.271 45.5695C52.3 45.8413 57.4 47.9409 59.0328 48.7808C60.062 49.3242 60.263 49.7441 59.4578 49.7441C58.7422 49.7441 54.7604 48.8054 53.15 48.2373C50.5999 47.348 49.9736 47.8668 52.1656 49.0525C54.3802 50.2381 57.5344 51.3003 59.1896 51.3744C61.2474 51.4979 62.7682 51.8931 63.9536 52.6342C65.0948 53.3504 66.101 53.3259 66.1906 52.5603C66.2354 52.165 65.8776 51.7697 64.4458 50.7322C62.3656 49.2254 61.6052 48.3361 60.7776 46.4835C60.0844 44.9273 59.3458 40.9751 59.1 37.5663C58.9208 34.9726 58.6078 34.2068 58.0484 35.022C57.8474 35.3431 57.7354 36.1582 57.7354 37.418C57.7354 38.4802 57.6234 39.4189 57.512 39.493C57.3776 39.567 57.1094 39.2706 56.8854 38.826C56.3484 37.6898 53.1948 34.1822 52.725 34.1822C52.412 34.1822 52.3672 34.2562 52.5458 34.4786C53.6422 36.0101 56.6172 40.7034 56.5276 40.8022C56.3708 40.9504 55.4317 40.2587 53.8656 38.826C52.613 37.6651 51.9197 37.4427 52.3448 38.332C52.4567 38.5543 53.6422 39.9129 54.9396 41.3456C57.6906 44.3345 58.876 45.9154 58.6974 46.4341C58.4958 47.0516 57.9146 46.8046 55.8344 45.3225C53.4182 43.5934 53.3286 43.4699 52.1432 40.9751C50.421 37.3686 48.8105 35.022 48.475 35.6148C48.4302 35.7136 48.8105 36.8993 49.3473 38.2579C49.8618 39.6165 50.2644 40.8268 50.1973 40.9256C49.8841 41.5185 49.1684 40.6045 45.7013 35.1208C44.6724 33.4658 43.8671 32.9471 43.8671 33.9104C43.8671 34.3303 44.0237 34.6021 45.5224 36.8993C46.3276 38.1344 46.1039 38.4802 45.1421 37.4922C44.7619 37.0722 43.9789 36.3559 43.4197 35.8865C42.8605 35.4172 41.6303 34.2315 40.6684 33.2682C38.9237 31.465 38.6329 31.2674 38.4092 31.6873Z" fill="#8F9467"/>
<path d="M66.4364 38.1837C66.2802 38.5048 66.101 39.8881 66.0562 41.2961C65.9896 42.6793 65.8776 43.8898 65.788 43.9391C65.676 44.0132 64.9604 43.2969 64.1552 42.3336C62.8354 40.7526 62.2088 40.2586 62.2088 40.802C62.2088 41.1479 63.5734 43.4204 64.2896 44.2603C64.6698 44.7049 65.5422 45.94 66.2354 47.0268C66.9062 48.089 68.2036 50.0404 69.1208 51.3496C70.2838 53.0539 70.6864 53.8195 70.5302 53.9925C70.1724 54.3878 66.1682 54.7586 62.5448 54.7831H59.413L53.6198 52.6341C50.421 51.4484 47.7592 50.5344 47.7144 50.6086C47.446 50.905 48.3184 51.5225 50.3092 52.4612C53.3068 53.9185 56.8406 55.9195 56.8406 56.1909C56.8406 56.5367 56.125 56.4383 55.0958 55.9195C53.9552 55.3513 50.2868 54.2893 48.5868 54.0419C47.1105 53.8195 47.0658 54.3383 48.5197 54.882C50.0184 55.4253 49.5934 56.1419 47.7815 56.1664C47.4236 56.1664 46.9539 56.2899 46.775 56.4133C46.1263 56.9076 47.0434 57.1544 49.6381 57.1789C51.0026 57.2039 52.2552 57.2534 52.3672 57.2779C52.501 57.3029 52.7698 57.3518 52.9708 57.3768C53.7984 57.4263 52.837 57.9201 51.1144 58.2909C49.1013 58.7107 47.5579 58.5623 43.3302 57.5003C40.7579 56.8581 39.9526 56.8086 39.9526 57.3768C39.9526 57.5742 40.7802 58.0435 42.0552 58.5378C43.196 58.9826 44.2697 59.4763 44.4039 59.6492C44.6723 59.9706 44.65 59.9706 39.6171 59.2789C35.3671 58.6862 35.233 58.6862 34.8974 58.9081C34.3606 59.2539 34.9422 59.5753 36.8211 59.9951C39.3487 60.5388 43.4421 61.6008 44.046 61.8727C44.9855 62.2675 44.3592 62.6628 42.9947 62.4899C40.0645 62.169 33.354 62.0206 33.354 62.2925C33.354 62.4404 33.6895 62.6628 34.0922 62.7862C34.4724 62.9102 35.4119 63.231 36.15 63.4534C36.8882 63.7003 37.8053 64.1201 38.1632 64.4169L38.8342 64.9357L36.6421 65.0836C34.2263 65.232 33.6895 65.5034 34.4948 66.1456C34.7856 66.368 35.233 66.5409 35.479 66.5409C35.725 66.5409 36.083 66.6643 36.2619 66.7883C36.8435 67.2081 36.15 67.455 33.3764 67.7763C28.5896 68.2951 27.9633 68.3935 27.9185 68.6409C27.8961 68.7888 28.9698 69.0112 30.4461 69.1597C31.8553 69.3326 33.0856 69.456 33.1974 69.4805C33.5106 69.53 33.354 70.444 32.9961 70.5919C32.7948 70.6664 32.2356 70.7404 31.7211 70.7404C29.5738 70.7649 26.062 72.1732 26.6211 72.7904C26.7777 72.9633 27.404 72.9138 28.7461 72.6425C30.8264 72.1732 31.5645 72.1237 31.5645 72.4201C31.5645 72.519 30.6027 73.655 29.4396 74.9393C27.583 76.9899 26.8672 78.1508 27.4935 78.1508C27.7396 78.1508 31.408 74.5195 32.5264 73.1612C32.9737 72.6175 33.4211 72.2221 33.4882 72.2966C33.5777 72.3706 33.4211 73.1362 33.1527 73.9763C32.0119 77.706 32.9066 77.5331 34.8974 73.655C36.4408 70.6169 38.275 67.9982 40.1316 66.1456C42.0329 64.2685 45.4329 62.8607 45.4329 63.9722C45.4329 64.5899 43.4197 67.6529 42.6592 68.1961C42.2789 68.468 41.1158 69.2336 40.0869 69.9003C38.3645 71.0123 37.8053 71.5555 38.1184 71.8768C38.1856 71.9508 38.7224 71.7779 39.2816 71.506C40.7356 70.7899 41.0263 70.8143 40.6908 71.605C40.4895 72.0987 40.4895 72.2966 40.7132 72.5435C40.9369 72.7659 41.2947 72.494 42.4355 71.1107C44.6723 68.443 46.171 66.3185 47.1105 64.5649C48.5421 61.8232 49.6828 60.4643 49.6828 61.5018C49.6828 62.2185 46.4842 68.0727 44.8289 70.419C43.9342 71.7039 43.196 72.8399 43.196 72.9633C43.196 73.4081 43.5987 73.2107 44.6947 72.2471C46.1934 70.9378 47.0434 69.8758 48.0052 68.1466C50.5105 63.7253 52.7026 60.2914 53.3958 59.6987C54.7156 58.6117 57.288 58.118 57.288 58.9826C57.288 59.1305 56.6844 59.8472 55.9458 60.5878C55.1854 61.3044 54.0896 62.6133 53.4854 63.5029C51.5618 66.3185 52.2328 66.3435 54.7828 63.5768C55.4094 62.8852 55.9458 62.4159 55.9458 62.5393C55.9458 62.6628 55.5432 63.4534 55.051 64.293C53.2172 67.4055 52.1432 70.2461 52.7922 70.2461C53.0156 70.2461 54.425 68.1222 55.4318 66.294C55.7672 65.6763 56.5948 64.3675 57.2656 63.3544C57.9594 62.3419 58.7646 61.1315 59.0552 60.6373C60.4198 58.3404 61.113 57.8706 64.1776 57.031C67.3088 56.1909 67.488 56.1664 67.6448 56.3149C67.9354 56.6357 67.063 57.5992 66.3698 57.7472C65.1396 57.9945 58.563 64.5649 59.3234 64.7378C59.8156 64.8612 62.5672 62.9102 64.513 61.0576C65.363 60.2669 66.1458 59.6742 66.2578 59.7727C66.3922 59.8472 66.3698 60.069 66.1906 60.3164C65.1614 61.8232 63.037 64.5649 62.4328 65.1826C60.9786 66.6893 59.5026 69.5055 60.1734 69.5055C60.487 69.5055 67.175 61.6998 67.801 60.5878C70.1052 56.5367 70.6864 55.7961 71.1562 56.3149C71.313 56.4878 71.0672 57.105 70.4182 58.2659C69.1432 60.5633 68.3828 62.5888 68.651 62.8852C68.9864 63.256 69.2552 62.9841 69.9932 61.5018C70.9104 59.7482 72.8114 57.2534 73.5948 56.8086C73.9302 56.6112 75.25 56.3149 76.525 56.1664C79.0302 55.8945 79.7682 55.5487 79.075 55.0055C78.8062 54.7831 77.8443 54.6841 76.0328 54.6841H73.4156L73.1026 53.9925C72.7448 53.2518 72.3864 51.5225 72.163 49.6699C71.9838 48.2125 71.5364 48.2372 71.3578 49.7193C71.1562 51.3496 70.8432 51.4484 70.1276 50.1145C69.7922 49.4723 69.1208 47.9408 68.651 46.7304C67.9354 44.9025 67.7562 44.0626 67.5552 41.8889C67.175 37.3932 67.0406 36.9486 66.4364 38.1837Z" fill="#8F9467"/>
<path d="M96.6562 44.7294C95.739 45.7916 94.4864 47.0514 93.8828 47.5207C93.301 47.99 92.451 48.731 92.0036 49.151C89.4984 51.4482 85.114 54.3876 79.9474 57.2282C76.7036 59.0069 72.3864 62.0454 71.5588 63.1319C71.0448 63.7741 70.9776 66.6642 71.4698 66.8621C71.626 66.936 72.2526 66.4912 72.8562 65.8741C73.9078 64.7871 74.8916 64.2189 79.8802 61.7241C81.1552 61.0819 82.4526 60.3902 82.7208 60.1678C83.213 59.847 83.325 59.847 84.0406 60.2668C84.5104 60.5631 84.8682 60.9829 84.9354 61.3538C85.1588 62.5392 85.539 63.0829 86.3442 63.3543C86.7916 63.5027 87.2838 63.7496 87.4406 63.898C87.7984 64.2189 87.776 65.0834 87.3734 65.7256C86.9484 66.3928 87.0828 66.7631 88.0442 67.4798C88.8494 68.097 89.476 68.0725 90.2364 67.3314C90.6838 66.8866 90.7062 66.047 90.3708 63.972C90.2364 63.1319 90.0802 62.2428 90.0354 61.9465C89.9906 61.6746 89.7218 61.3043 89.4312 61.1314C88.626 60.6621 87.2166 58.2163 87.3958 57.5991C87.463 57.3272 87.9776 56.8824 88.5364 56.611C89.0958 56.3392 90.1244 55.598 90.8406 54.9803C91.5562 54.3381 93.4578 53.0537 95.0682 52.1397C97.4838 50.7319 98.0208 50.3367 98.1546 49.7932C98.2218 49.4227 98.6244 48.3605 99.0494 47.3972C99.8994 45.421 100.034 43.8895 99.3854 43.2473C99.1614 43.0003 98.826 42.8274 98.6692 42.8274C98.4906 42.8274 97.5958 43.6919 96.6562 44.7294Z" fill="#8F9467"/>
<path d="M76.525 66.245C74.9812 67.0851 75.5854 67.8507 78.0906 68.1471C79.0302 68.2461 79.5 68.1966 80.1036 67.8507C81.1104 67.2825 81.289 66.3934 80.439 66.0476C79.5 65.6523 77.3974 65.7513 76.525 66.245Z" fill="#8F9467"/>
<path d="M65.9 66.9365C64.9604 67.5047 64.625 68.0234 64.9156 68.4432C65.05 68.6161 65.3182 68.7646 65.475 68.7646C65.6536 68.7646 66.0562 69.0854 66.3922 69.5057C67.1526 70.4443 67.6672 70.4443 68.4948 69.4563C69.2104 68.5667 69.3448 67.5292 68.8078 67.0354C68.2708 66.5411 66.6604 66.4917 65.9 66.9365Z" fill="#8F9467"/>
<path d="M81.3338 68.1714C80.2156 68.6412 79.2088 69.6787 79.2088 70.4193C79.2088 70.7407 79.4328 71.2344 79.6786 71.5063C80.126 72.0006 80.3052 72.0251 82.3182 71.8771C84.175 71.7287 84.6219 71.7532 85.4719 72.1735C86.0312 72.4448 86.6802 72.8896 86.9036 73.186C87.4854 73.9027 88.2906 73.8532 88.738 73.087C89.6552 71.5313 88.0219 68.9125 85.6958 68.2209C84.1078 67.7271 82.4526 67.7021 81.3338 68.1714Z" fill="#8F9467"/>
<path d="M72.8339 68.4428C71.5813 68.6157 69.8812 69.2579 69.3 69.7766C68.8078 70.1964 68.6958 70.4933 68.6958 71.3824C68.6958 72.4938 69.1432 74.0006 69.5458 74.297C69.6802 74.3714 70.2172 74.248 70.7536 74.0006C71.4698 73.6548 72.3865 73.5313 74.4 73.4818C77.5984 73.4324 78.0906 73.2105 78.0906 71.7527C78.0906 71.0121 77.9339 70.6412 77.375 70.024C76.4354 69.011 74.2656 68.2454 72.8339 68.4428Z" fill="#8F9467"/>
<path d="M62.5448 70.7898C61.3146 71.4815 60.5094 72.3461 59.637 73.9513C58.7422 75.582 58.4734 76.8664 58.876 77.6815C59.2344 78.4721 59.5026 78.645 60.3526 78.645C60.912 78.645 61.2474 78.4227 61.963 77.5086C62.4776 76.8664 62.8802 76.2737 62.8802 76.1497C62.8802 75.7549 64.401 74.9643 65.4974 74.7914C67.2198 74.5445 67.4432 74.2971 67.2646 72.8398C67.0182 71.0612 66.1906 70.2461 64.625 70.2461C63.887 70.2711 63.1036 70.4685 62.5448 70.7898Z" fill="#8F9467"/>
<path d="M90.4604 70.4935C89.2078 71.0367 89.6776 72.568 91.5339 74.0753C92.9208 75.2112 93.8604 75.4581 94.3745 74.8904C95.0458 74.1492 94.3302 72.2716 92.988 71.2591C91.9141 70.444 91.1313 70.2216 90.4604 70.4935Z" fill="#8F9467"/>
<path d="M77.7776 74.1739C76.4802 74.7666 75.4958 75.7302 75.2948 76.6198C75.1156 77.4349 75.2948 77.5828 76.7932 77.7557C79.4552 78.1015 80.6406 78.3979 81.4234 78.9661C83.638 80.5224 84.913 80.6953 85.6286 79.4849C85.9865 78.8672 85.9865 78.7932 85.45 77.7062C84.1969 75.088 82.6984 73.9271 80.3276 73.7786C79.2536 73.7297 78.5828 73.8281 77.7776 74.1739Z" fill="#8F9467"/>
<path d="M86.8588 75.0631C85.4943 75.7297 85.7854 76.8167 87.463 77.385C87.9552 77.5329 88.8719 78.0516 89.4984 78.5209C91.0865 79.7068 92.5406 80.2501 93.5917 80.0277C94.0391 79.9292 94.4193 79.7313 94.4193 79.5584C94.4193 79.1141 93.1891 76.8662 92.6745 76.3475C92.0708 75.7297 89.3417 74.6922 88.3802 74.7172C87.9552 74.7172 87.2615 74.8652 86.8588 75.0631Z" fill="#8F9467"/>
<path d="M66.4589 75.9028C65.788 76.1252 65.0052 76.471 64.7146 76.644C63.5063 77.3601 62.9474 79.6575 63.663 80.794C64.1328 81.5346 65.8552 82.3502 66.9287 82.3502C67.7563 82.3502 69.5906 81.9054 70.7089 81.4111C72.2078 80.769 73.8182 77.6565 73.1474 76.7674C72.163 75.458 68.8974 75.0382 66.4589 75.9028Z" fill="#8F9467"/>
<path d="M94.1958 76.0515C94.039 76.2489 93.9719 76.5947 94.0614 76.7926C94.2406 77.3108 97.864 79.8801 98.4234 79.8801C99.5417 79.8801 98.6469 77.3853 97.126 76.2488C96.2312 75.5822 94.6208 75.4832 94.1958 76.0515Z" fill="#8F9467"/>
<path d="M74.8698 79.2377C73.5724 79.7809 72.8562 80.4231 72.588 81.3616C72.2526 82.4736 72.3864 82.8195 73.5724 83.9309C74.5338 84.82 74.6682 84.8695 75.8312 84.7705C76.7484 84.6965 77.375 84.4497 78.2026 83.857C79.1864 83.1653 79.4552 83.0663 80.35 83.1898C81.7588 83.3872 82.564 83.0419 82.564 82.2262C82.564 81.3866 82.0052 80.8434 80.1932 79.8549C78.426 78.8919 76.3234 78.645 74.8698 79.2377Z" fill="#8F9467"/>
<path d="M58.3172 79.6334C56.1922 80.1767 55.387 80.7694 55.387 81.7574C55.387 82.6715 55.7896 82.7454 58.3172 82.3506C61.0906 81.9058 62.3656 80.7694 61.4036 79.6085C60.9562 79.0652 60.6432 79.0652 58.3172 79.6334Z" fill="#8F9467"/>
<path d="M86.4786 80.4976C85.4499 80.9419 84.8682 81.5101 84.7562 82.2018C84.689 82.6465 85.2932 83.1653 87.351 84.4741C88.1562 84.9684 92.451 85.1413 93.0328 84.6721C93.5692 84.2518 93.4802 82.8439 92.8536 81.9299C92.5854 81.4856 91.9364 80.9419 91.4218 80.7195C90.1468 80.1518 87.5968 80.0278 86.4786 80.4976Z" fill="#8F9467"/>
<path d="M97.1708 80.7694C96.9917 81.2881 98.2219 83.9314 99.1614 85.0923C100.011 86.1048 100.548 85.9814 100.638 84.697C100.749 82.8939 99.4745 80.8928 97.9536 80.473C97.4838 80.3496 97.3047 80.4236 97.1708 80.7694Z" fill="#8F9467"/>
<path d="M94.1286 81.7823C93.838 82.1031 93.9719 82.6469 94.6656 83.7333C95.3364 84.8203 95.3365 84.8698 95.0682 86.0557C94.8219 87.1672 94.8219 87.3151 95.2021 87.7849C95.7391 88.4516 96.4552 88.4021 97.1708 87.6859C98.3786 86.4505 98.1328 84.7464 96.4771 82.7948C95.7614 81.9552 95.3141 81.6094 94.8667 81.6094C94.5312 81.6094 94.1958 81.6833 94.1286 81.7823Z" fill="#8F9467"/>
<path d="M60.6432 82.6217C57.1313 83.7582 55.3198 85.0426 54.8724 86.7473C54.2234 89.1186 54.6932 89.7608 57.0198 89.7608C59.7708 89.7608 62.2089 88.5504 64.8932 85.8577C65.9448 84.7957 66.0787 84.5488 65.8776 84.1535C65.2063 82.8936 62.3656 82.0535 60.6432 82.6217Z" fill="#8F9467"/>
<path d="M68.1146 84.5979C65.6984 86.0062 64.401 87.0932 64.088 87.9328C63.6406 89.1187 63.7078 90.3286 64.2448 91.0948C64.6474 91.663 64.8708 91.737 66.0338 91.737C67.5104 91.737 68.9422 91.1687 70.8208 89.8594C71.4474 89.4151 72.6552 88.8713 73.4828 88.6C74.3776 88.3526 75.138 87.9573 75.2724 87.7104C75.764 86.8214 73.4604 85.2156 69.9036 83.9807C69.5906 83.8818 68.9864 84.0792 68.1146 84.5979Z" fill="#8F9467"/>
<path d="M79.8578 85.1657C78.963 85.5116 77.9562 86.2282 77.375 86.9689C77.0166 87.4136 77.0166 87.4876 77.3526 88.0064C77.7776 88.6735 79.2984 89.4886 80.1484 89.5131C80.4838 89.5131 81.4682 89.2168 82.3406 88.8709C83.8166 88.2537 84.0182 88.2287 84.9802 88.5251C86.613 88.9944 88.626 89.1183 88.8494 88.7475C89.3192 87.9079 87.6864 86.1293 85.6958 85.2892C84.3536 84.7215 81.1328 84.647 79.8578 85.1657Z" fill="#8F9467"/>
<path d="M89.8562 86.3763C89.2302 86.895 89.588 87.6856 90.9078 88.6487C91.7354 89.2664 92.3167 89.5132 92.9208 89.5132C93.9495 89.5132 94.1958 89.0195 93.6588 87.9325C92.8984 86.3518 90.8854 85.5367 89.8562 86.3763Z" fill="#8F9467"/>
<path d="M96.0745 89.1429C95.5828 89.5382 95.4708 89.2169 97.439 92.8481C99.139 95.9606 99.7208 96.5039 100.258 95.3924C100.616 94.6268 100.347 92.1809 99.7208 90.8226C98.938 89.0934 97.1484 88.2539 96.0745 89.1429Z" fill="#8F9467"/>
<path d="M73.0578 89.7356C72.0062 90.2544 70.4854 92.0085 69.8364 93.4408C69.2104 94.7502 69.2328 94.9726 70.0604 95.8372C70.6865 96.5038 70.888 96.5533 72.6776 96.6273C73.751 96.6767 75.2724 96.6028 76.0776 96.4794C77.5088 96.2325 80.0364 95.3429 80.3943 94.9726C80.5958 94.7502 79.813 92.4283 79.1864 91.4648C78.9406 91.0945 78.1354 90.4523 77.375 90.032C75.7641 89.1429 74.4224 89.0439 73.0578 89.7356Z" fill="#8F9467"/>
<path d="M82.5193 89.9823C81.6917 90.2792 80.3276 91.2177 80.3276 91.5141C80.3276 91.613 80.6182 91.9589 80.976 92.2552C81.3115 92.5266 82.0052 93.3172 82.475 94.0089C83.638 95.7135 84.5776 96.1333 87.1943 96.1333C89.7667 96.1578 89.9234 96.0099 89.3865 94.1078C88.8276 92.1807 88.313 91.3656 87.1719 90.625C86.076 89.9083 83.638 89.5875 82.5193 89.9823Z" fill="#8F9467"/>
<path d="M59.413 90.7236C58.451 91.1928 56.6172 93.2678 56.013 94.5522C55.4536 95.7381 55.275 96.6767 55.4984 97.3189C55.812 98.2085 56.4156 98.0355 57.4896 96.8001C58.1156 96.0595 58.7422 95.6147 59.3682 95.4418C62.187 94.6267 62.8802 94.034 62.8802 92.4282C62.8802 90.872 62.4104 90.2543 61.2474 90.2793C60.7328 90.2793 59.9052 90.5012 59.413 90.7236Z" fill="#8F9467"/>
<path d="M90.863 90.5758C89.789 91.193 89.7666 91.6378 90.751 92.7743C91.2656 93.367 91.7354 94.1326 91.8244 94.5034C91.8916 94.8737 92.339 95.6394 92.8312 96.1831C93.6588 97.1461 93.7036 97.1711 95.2468 97.1711C97.0812 97.1711 97.439 96.8993 97.2156 95.6394C97.0364 94.6763 96.2312 93.0951 95.3812 91.9591C94.263 90.5013 92.138 89.8592 90.863 90.5758Z" fill="#8F9467"/>
<path d="M64.4682 94.0342C62.2536 95.2936 61.113 96.4545 60.3078 98.2827C59.7708 99.4681 59.7484 99.6905 59.9724 100.654C60.2406 101.741 60.9562 102.852 61.4036 102.852C61.762 102.852 66.8839 98.1837 67.4208 97.3686C67.913 96.6524 68.0922 93.9353 67.6896 93.4905C67.1078 92.8728 66.325 92.9967 64.4682 94.0342Z" fill="#8F9467"/>
<path d="M77.3973 97.6155C76.8604 98.0108 75.675 99.0978 74.8026 100.061C73.2812 101.667 73.1697 101.864 73.1697 102.828C73.1697 104.26 73.438 104.681 74.7578 105.471C75.3838 105.866 76.0328 106.484 76.2114 106.854C76.6364 107.743 77.5312 108.237 79.0973 108.435L80.35 108.608L81.401 107.398C82.788 105.792 83.7942 103.618 83.5932 102.581C83.3468 101.247 79.5442 96.9238 78.5828 96.9238C78.4932 96.9238 77.9562 97.2452 77.3973 97.6155Z" fill="#8F9467"/>
<path d="M67.8682 97.8874C67.1302 98.4061 66.75 98.9249 64.9828 101.963C63.663 104.236 63.663 104.928 64.9828 106.138C65.5422 106.632 66.0786 107.052 66.1906 107.052C66.6156 107.052 69.725 104.433 71.3802 102.704C73.3484 100.63 74.4 99.0733 74.2208 98.5546C74.0422 98.0603 72.7672 97.7145 70.4854 97.5416C68.8078 97.3936 68.4948 97.4426 67.8682 97.8874Z" fill="#8F9467"/>
<path d="M91.1984 97.6407C91.0192 97.9616 91.288 98.5793 92.5182 100.506C93.7036 102.358 94.0838 103.223 94.2854 104.384C94.4416 105.373 95.4484 106.657 96.2312 106.928C97.0364 107.225 97.8192 106.113 97.9536 104.508C98.088 102.754 97.7078 101.543 96.6338 100.259C95.3588 98.7522 91.601 96.9241 91.1984 97.6407Z" fill="#8F9467"/>
<path d="M83.0338 98.0855C82.564 98.5053 82.5416 98.6287 82.788 99.0735C82.9666 99.3449 83.3916 99.7897 83.7718 100.037C85.1812 100.951 87.6416 103.125 88.3354 104.088C89.2526 105.323 90.8406 106.361 91.6682 106.262C92.2718 106.188 92.2942 106.113 92.3614 104.779C92.451 103.1 91.7578 101.395 90.5494 100.209C88.4692 98.1839 84.2416 96.9985 83.0338 98.0855Z" fill="#8F9467"/>
<path d="M61.4036 103.964C59.9724 105.619 59.413 108.114 60.1958 109.497C60.6208 110.238 60.7552 110.312 61.4708 110.189C62.4328 110.016 63.1932 109.472 63.7078 108.632C64.0656 108.015 64.0656 107.941 63.4838 106.706C62.9698 105.643 62.9026 105.248 63.037 104.137C63.1484 103.001 63.126 102.852 62.7682 102.852C62.5448 102.852 61.9182 103.346 61.4036 103.964Z" fill="#8F9467"/>
<path d="M84.5776 104.829C83.8838 105.669 83.1682 107.719 83.2802 108.583C83.325 108.905 83.8166 109.472 84.5552 110.041C85.651 110.881 86.3218 111.671 87.5526 113.598C88.313 114.783 89.5432 114.166 89.5656 112.585C89.5656 109.967 89.2078 108.015 88.5364 106.904C87.8432 105.743 86.076 104.087 85.539 104.087C85.3604 104.087 84.913 104.433 84.5776 104.829Z" fill="#8F9467"/>
<path d="M70.9552 105.174C70.1276 105.47 69.9708 105.693 69.613 107.225C69.4786 107.792 69.0312 108.682 68.6062 109.225C67.8234 110.287 67.1526 112.362 67.488 112.708C67.6 112.831 68.45 113.103 69.3896 113.35C71.3354 113.844 71.1562 113.894 73.975 111.843C75.563 110.658 76.301 109.769 76.301 109.028C76.301 108.731 73.0354 105.643 72.275 105.199C71.85 104.952 71.5364 104.952 70.9552 105.174Z" fill="#8F9467"/>
<path d="M89.9458 107.422C89.9458 108.78 91.1536 112.56 91.8693 113.4C92.6969 114.363 92.8312 114.388 93.5917 113.721C94.2406 113.153 94.5312 111.942 94.3078 110.806C94.0615 109.522 91.3552 106.804 90.3484 106.804C90.0578 106.804 89.9458 107.002 89.9458 107.422Z" fill="#8F9467"/>
<path d="M65.6761 108.287C65.4302 108.386 64.6922 109.102 64.0432 109.843C62.4552 111.622 62.187 112.857 62.925 115.006C63.1933 115.796 63.5959 115.994 64.3339 115.697C65.0724 115.376 65.475 114.635 65.9224 112.659C66.1235 111.72 66.5261 110.584 66.8172 110.114C67.4209 109.151 67.4656 108.756 67.0854 108.336C66.7724 107.99 66.325 107.99 65.6761 108.287Z" fill="#8F9467"/>
<path d="M78.0906 110.164C76.525 110.905 75.7417 112.115 75.5182 114.116C75.3838 115.178 75.451 115.475 76.0328 116.463C76.8156 117.797 78.0682 118.414 79.9917 118.414C81.8708 118.414 82.788 117.278 82.788 114.907C82.788 113.375 82.251 111.967 81.2224 110.683C80.6406 109.942 80.35 109.769 79.6786 109.769C79.2312 109.794 78.5156 109.966 78.0906 110.164Z" fill="#8F9467"/>
<path d="M83.8391 112.658C83.75 112.733 83.6828 113.276 83.6828 113.82C83.7052 115.129 85.6063 120.069 86.3 120.563C86.7469 120.909 86.8365 120.884 87.3287 120.291C87.9328 119.575 88.1563 118.686 88.1563 116.932C88.1563 115.771 88.1339 115.721 86.4339 114.116C84.8011 112.584 84.1969 112.264 83.8391 112.658Z" fill="#8F9467"/>
<path d="M72.2973 114.561C71.6484 115.203 71.0671 115.697 70.9775 115.697C70.888 115.697 70.3286 115.425 69.7249 115.08C68.4052 114.339 67.7786 114.314 67.2864 114.907C66.9734 115.277 66.951 115.524 67.1526 116.315C67.4656 117.525 68.4276 119.057 69.501 119.995C70.2171 120.637 70.4406 120.687 71.4921 120.563C73.3932 120.341 73.5276 120.193 74.064 117.599C74.5786 115.129 74.489 113.672 73.7958 113.523C73.5947 113.474 72.9234 113.944 72.2973 114.561Z" fill="#8F9467"/>
<path d="M81.3114 119.131C80.551 119.526 79.8802 119.971 79.7906 120.119C79.589 120.464 80.3276 122.712 80.8864 123.503C81.2224 123.972 81.625 124.17 82.363 124.269C83.3026 124.392 83.4364 124.343 83.9734 123.602C84.7562 122.564 84.913 121.798 84.5776 120.563C83.9734 118.217 83.5036 118.019 81.3114 119.131Z" fill="#8F9467"/>
<path d="M74.7354 119.156C74.0422 119.921 74.1312 121.502 74.9588 122.935C75.7198 124.294 76.1448 124.368 77.6432 123.528C78.6052 123.009 78.65 122.935 78.7166 121.823C78.8062 120.317 78.4932 119.724 77.3526 119.131C76.1448 118.538 75.2948 118.538 74.7354 119.156Z" fill="#8F9467"/>
<path d="M71.9614 121.774C71.5588 122.194 71.4922 123.503 71.8052 124.417C72.0734 125.183 73.3036 125.726 73.7734 125.282C74.2208 124.861 73.9974 123.528 73.2812 122.342C72.6552 121.28 72.476 121.206 71.9614 121.774Z" fill="#8F9467"/>
<path d="M77.6432 124.417C77.0838 124.713 76.5916 125.158 76.5697 125.405C76.413 126.245 78.2249 127.875 78.9854 127.604C79.5666 127.406 80.551 126.245 80.551 125.751C80.551 125.232 79.388 123.849 78.9406 123.849C78.7838 123.873 78.2026 124.121 77.6432 124.417Z" fill="#8F9467"/>
<path d="M126.561 104.104C125.028 104.103 124.262 103.269 124.263 101.602L124.283 71.152C124.283 70.2187 124.451 69.5687 124.784 69.2025C125.151 68.8359 125.718 68.653 126.484 68.6536C128.618 68.6546 129.684 69.939 129.682 72.5056L129.663 101.456L141.713 101.463L141.732 71.6635C141.733 70.4635 141.984 69.6635 142.484 69.264C143.018 68.8645 143.801 68.665 144.834 68.6655C146.368 68.6666 147.134 69.5004 147.133 71.1671L147.113 101.467L159.163 101.475L159.182 71.9249C159.183 70.7249 159.434 69.8916 159.934 69.4254C160.468 68.9254 161.251 68.676 162.284 68.677C163.818 68.678 164.584 69.5119 164.583 71.1786L164.563 101.629C164.562 103.295 163.795 104.128 162.261 104.127L126.561 104.104ZM194.906 101.798C194.905 102.532 194.771 103.115 194.505 103.548C194.238 103.948 193.704 104.147 192.904 104.147C191.804 104.146 190.988 103.846 190.455 103.245C189.955 102.612 189.706 101.545 189.707 100.045L189.716 85.7447L178.405 102.837C177.871 103.704 176.921 104.136 175.554 104.135C174.754 104.135 174.221 103.935 173.955 103.534C173.688 103.101 173.555 102.518 173.556 101.784L173.569 81.3843C173.57 80.6176 173.703 80.0343 173.97 79.6343C174.237 79.2348 174.771 79.0348 175.571 79.0353C176.671 79.0364 177.47 79.3536 177.97 79.9869C178.503 80.5874 178.769 81.6374 178.768 83.1374L178.758 97.6374L190.02 80.5452C190.387 79.9786 190.77 79.5958 191.17 79.3958C191.571 79.1629 192.154 79.0463 192.921 79.0468C193.721 79.0473 194.254 79.2478 194.52 79.6478C194.786 80.0484 194.92 80.6317 194.919 81.3984L194.906 101.798ZM204.9 104.155C204.1 104.154 203.567 103.954 203.301 103.554C203.034 103.12 202.901 102.537 202.902 101.804L202.915 81.4036C202.915 80.6369 203.049 80.0536 203.316 79.6536C203.583 79.2541 204.116 79.0541 204.916 79.0546C206.016 79.0557 206.816 79.3728 207.316 80.0062C207.849 80.6067 208.115 81.6567 208.114 83.1567L208.102 101.807L215.852 101.812L215.865 82.2119C215.865 80.9119 216.082 80.0619 216.516 79.6624C216.983 79.2629 217.616 79.0629 218.416 79.0635C219.316 79.064 219.966 79.2645 220.366 79.665C220.799 80.065 221.015 80.9155 221.015 82.2155L221.002 101.816L228.752 101.82L228.764 82.6202C228.765 81.1202 229.016 80.1541 229.516 79.7208C230.049 79.2879 230.866 79.0718 231.966 79.0723C232.766 79.0728 233.299 79.2734 233.566 79.6734C233.832 80.0739 233.965 80.6572 233.965 81.4239L233.952 101.824C233.951 102.557 233.817 103.141 233.551 103.573C233.283 103.973 232.75 104.173 231.95 104.172L204.9 104.155ZM247.172 89.8322L248.822 89.8338L257.578 81.1395C258.345 80.4067 258.995 79.89 259.529 79.5905C260.095 79.2577 260.679 79.0911 261.279 79.0916C261.779 79.0921 262.129 79.2088 262.329 79.4426C262.562 79.676 262.678 79.976 262.678 80.3426C262.678 81.0093 262.377 81.6093 261.777 82.1421C261.21 82.6416 260.443 83.2077 259.476 83.8405C258.509 84.44 257.458 85.2223 256.324 86.1885C255.557 86.8546 254.84 87.5041 254.173 88.1369C253.539 88.7364 252.856 89.3697 252.122 90.0359L261.964 101.642C262.231 101.975 262.447 102.276 262.614 102.543C262.78 102.776 262.863 103.009 262.863 103.243C262.863 103.476 262.73 103.693 262.463 103.893C262.229 104.092 261.563 104.192 260.463 104.191C259.263 104.191 258.413 104.057 257.913 103.79C257.446 103.489 257.03 103.106 256.664 102.638L248.37 92.1833L247.17 92.1822L247.165 100.632C247.164 102.132 246.896 103.099 246.363 103.532C245.863 103.965 245.062 104.181 243.962 104.18C243.162 104.18 242.629 103.98 242.363 103.579C242.096 103.146 241.964 102.562 241.964 101.829L241.978 81.4291C241.978 80.6624 242.111 80.0791 242.379 79.6791C242.645 79.2796 243.179 79.0796 243.979 79.0801C245.079 79.0812 245.879 79.3984 246.378 80.0317C246.911 80.6322 247.177 81.6822 247.176 83.1822L247.172 89.8322ZM289.193 101.86C289.192 102.593 289.059 103.176 288.792 103.61C288.525 104.009 287.991 104.209 287.191 104.209C286.091 104.208 285.275 103.907 284.742 103.307C284.242 102.673 283.993 101.607 283.994 100.107L284.004 85.8067L272.692 102.899C272.158 103.766 271.208 104.198 269.841 104.197C269.041 104.197 268.508 103.996 268.242 103.596C267.976 103.163 267.842 102.579 267.843 101.846L267.856 81.4458C267.857 80.6791 267.991 80.0963 268.257 79.6963C268.524 79.2963 269.058 79.0968 269.858 79.0973C270.958 79.0978 271.758 79.415 272.257 80.0489C272.79 80.6494 273.056 81.6994 273.055 83.1994L273.046 97.6994L284.307 80.6067C284.674 80.0405 285.057 79.6572 285.458 79.4577C285.858 79.2244 286.441 79.1083 287.208 79.1088C288.008 79.1093 288.541 79.3093 288.807 79.7098C289.074 80.1098 289.207 80.6931 289.206 81.4598L289.193 101.86Z" fill="#8F9467"/>
</g>
</svg>
