<svg width="149" height="64" viewBox="0 0 149 64" fill="none" xmlns="http://www.w3.org/2000/svg">
<mask id="mask0_7_169" style="mask-type:luminance" maskUnits="userSpaceOnUse" x="0" y="0" width="149" height="64">
<path d="M148.146 0H0V63.1322H148.146V0Z" fill="white"/>
</mask>
<g mask="url(#mask0_7_169)">
<path d="M16.6035 13.3366C16.4875 13.5238 16.6712 13.7525 17.6188 14.6466C18.141 15.1352 18.5761 15.5823 18.5761 15.6447C18.5761 15.8006 18.0636 15.7486 17.4351 15.5199C16.7679 15.2808 16.4295 15.312 16.6519 15.5927C16.8162 15.811 17.3094 16.0397 18.7308 16.5595C19.9878 17.0378 20.9934 17.568 20.9934 17.7759C20.9934 17.9943 20.7033 17.9527 19.688 17.5992C18.7211 17.2769 18.431 17.2457 18.431 17.5056C18.431 17.6616 19.6204 18.223 20.4423 18.4517C21.1868 18.67 20.9837 18.7948 20.0071 18.722C19.0305 18.6596 18.3343 18.8052 18.3343 19.0651C18.3343 19.1898 18.5567 19.2314 19.5333 19.2522C20.1812 19.2626 20.9547 19.2314 21.2255 19.1794C21.5542 19.1171 21.883 19.1171 22.1634 19.1794C22.6082 19.2938 24.8128 20.1775 25.5187 20.531C25.9636 20.7597 26.0505 20.9365 25.7024 20.9365C25.393 20.9365 23.6718 20.5414 22.9756 20.3023C21.8733 19.928 21.6026 20.1463 22.5501 20.6453C23.5074 21.1444 24.8709 21.5914 25.5864 21.6226C26.476 21.6746 27.1334 21.8409 27.6458 22.1528C28.1391 22.4543 28.5741 22.444 28.6128 22.1217C28.6322 21.9553 28.4775 21.789 27.8586 21.3523C26.9594 20.7181 26.6307 20.3438 26.2729 19.5641C25.9732 18.9091 25.654 17.2457 25.5477 15.811C25.4703 14.7194 25.3349 14.3971 25.0931 14.7402C25.0062 14.8753 24.9578 15.2184 24.9578 15.7486C24.9578 16.1957 24.9094 16.5907 24.8612 16.6219C24.8032 16.6531 24.6872 16.5284 24.5904 16.3412C24.3583 15.863 22.995 14.3867 22.7919 14.3867C22.6566 14.3867 22.6373 14.4179 22.7145 14.5115C23.1884 15.156 24.4744 17.1314 24.4357 17.1729C24.3679 17.2353 23.962 16.9442 23.285 16.3412C22.7435 15.8526 22.4438 15.759 22.6276 16.1333C22.676 16.2269 23.1884 16.7987 23.7492 17.4017C24.9385 18.6596 25.4509 19.325 25.3737 19.5433C25.2865 19.8032 25.0353 19.6993 24.136 19.0755C23.0916 18.3477 23.0529 18.2958 22.5404 17.2457C21.796 15.7278 21.0998 14.7402 20.9547 14.9897C20.9354 15.0313 21.0998 15.5303 21.3318 16.1021C21.5542 16.6739 21.7283 17.1833 21.6993 17.2249C21.5639 17.4744 21.2545 17.0898 19.7557 14.7818C19.311 14.0852 18.9629 13.8669 18.9629 14.2723C18.9629 14.4491 19.0305 14.5634 19.6784 15.5303C20.0265 16.0501 19.9298 16.1957 19.514 15.7798C19.3496 15.6031 19.0112 15.3016 18.7695 15.104C18.5277 14.9065 17.9959 14.4075 17.5801 14.002C16.8259 13.2431 16.7002 13.1599 16.6035 13.3366Z" fill="white"/>
<path d="M28.7191 16.0709C28.6516 16.2061 28.5741 16.7883 28.5548 17.3809C28.5259 17.9631 28.4775 18.4725 28.4388 18.4933C28.3904 18.5245 28.0811 18.223 27.733 17.8175C27.1625 17.1521 26.8916 16.9442 26.8916 17.1729C26.8916 17.3185 27.4815 18.2749 27.7911 18.6284C27.9554 18.8156 28.3325 19.3354 28.6322 19.7928C28.9222 20.2399 29.483 21.0612 29.8795 21.6122C30.3823 22.3295 30.5563 22.6518 30.4888 22.7245C30.3341 22.8909 28.6032 23.047 27.0368 23.0573H25.683L23.1787 22.1528C21.796 21.6538 20.6453 21.2691 20.626 21.3003C20.5099 21.4251 20.887 21.685 21.7476 22.0801C23.0434 22.6934 24.571 23.5356 24.571 23.6498C24.571 23.7954 24.2617 23.7539 23.8168 23.5356C23.3237 23.2965 21.738 22.8495 21.0031 22.7454C20.3649 22.6518 20.3456 22.8701 20.9741 23.0989C21.6219 23.3276 21.4382 23.6292 20.655 23.6395C20.5003 23.6395 20.2972 23.6915 20.2199 23.7434C19.9394 23.9515 20.3359 24.0554 21.4575 24.0657C22.0474 24.0762 22.5889 24.097 22.6373 24.1073C22.6951 24.1178 22.8113 24.1384 22.8982 24.149C23.256 24.1698 22.8403 24.3776 22.0957 24.5337C21.2255 24.7104 20.5583 24.6479 18.7308 24.2009C17.6188 23.9306 17.2707 23.9098 17.2707 24.149C17.2707 24.232 17.6285 24.4295 18.1796 24.6376C18.6728 24.8248 19.1369 25.0326 19.1949 25.1054C19.3109 25.2406 19.3013 25.2406 17.1257 24.9495C15.2885 24.7001 15.2305 24.7001 15.0854 24.7934C14.8534 24.939 15.1048 25.0742 15.917 25.2509C17.0096 25.4798 18.7791 25.9267 19.0402 26.0412C19.4463 26.2073 19.1756 26.3737 18.5857 26.3009C17.319 26.1659 14.4182 26.1034 14.4182 26.2179C14.4182 26.2801 14.5633 26.3737 14.7373 26.4257C14.9017 26.4778 15.3078 26.6129 15.6269 26.7065C15.946 26.8104 16.3425 26.9871 16.4972 27.112L16.7872 27.3303L15.8396 27.3926C14.7953 27.4551 14.5633 27.5693 14.9114 27.8396C15.0371 27.9332 15.2305 28.0059 15.3368 28.0059C15.4432 28.0059 15.5979 28.0579 15.6753 28.1101C15.9267 28.2868 15.6269 28.3907 14.4279 28.5259C12.3587 28.7442 12.0879 28.7857 12.0686 28.8898C12.0589 28.9521 12.5231 29.0457 13.1612 29.1081C13.7704 29.1809 14.3022 29.2329 14.3506 29.2432C14.4859 29.264 14.4182 29.6487 14.2636 29.711C14.1765 29.7423 13.9348 29.7734 13.7124 29.7734C12.7841 29.7837 11.2661 30.3765 11.5078 30.6362C11.5755 30.709 11.8462 30.6882 12.4264 30.574C13.3256 30.3765 13.6447 30.3556 13.6447 30.4804C13.6447 30.522 13.2289 31.0001 12.7261 31.5407C11.9236 32.4037 11.6141 32.8923 11.8849 32.8923C11.9912 32.8923 13.577 31.364 14.0605 30.7923C14.2539 30.5635 14.4473 30.3971 14.4763 30.4284C14.5149 30.4596 14.4473 30.7818 14.3312 31.1354C13.8381 32.7051 14.2249 32.6324 15.0854 31.0001C15.7526 29.7215 16.5455 28.6193 17.3481 27.8396C18.17 27.0495 19.6397 26.457 19.6397 26.9248C19.6397 27.1848 18.7695 28.474 18.4407 28.7026C18.2763 28.817 17.7735 29.1393 17.3287 29.4198C16.5842 29.8879 16.3425 30.1165 16.4778 30.2517C16.5068 30.2829 16.7389 30.2101 16.9806 30.0957C17.6091 29.7943 17.7348 29.8046 17.5898 30.1373C17.5028 30.3451 17.5028 30.4284 17.5995 30.5323C17.6962 30.6259 17.8509 30.5115 18.344 29.9293C19.3109 28.8065 19.9588 27.9123 20.3649 27.1743C20.9837 26.0203 21.4769 25.4484 21.4769 25.8851C21.4769 26.1867 20.0942 28.6506 19.3786 29.6382C18.9919 30.179 18.6728 30.6571 18.6728 30.709C18.6728 30.8962 18.8468 30.8131 19.3206 30.4076C19.9684 29.8565 20.3359 29.4095 20.7517 28.6818C21.8346 26.8209 22.7823 25.3757 23.0819 25.1262C23.6524 24.6687 24.7644 24.4609 24.7644 24.8248C24.7644 24.887 24.5035 25.1887 24.1842 25.5004C23.8555 25.802 23.3818 26.3529 23.1206 26.7273C22.2891 27.9123 22.5792 27.9229 23.6815 26.7584C23.9523 26.4673 24.1842 26.2698 24.1842 26.3218C24.1842 26.3737 24.0102 26.7065 23.7974 27.0598C23.0047 28.3698 22.5404 29.5654 22.821 29.5654C22.9176 29.5654 23.5268 28.6715 23.962 27.902C24.107 27.6421 24.4648 27.0912 24.7548 26.6648C25.0546 26.2387 25.4027 25.7292 25.5284 25.5212C26.1182 24.5545 26.4179 24.3568 27.7427 24.0034C29.0962 23.6498 29.1737 23.6395 29.2415 23.702C29.3671 23.837 28.99 24.2426 28.6903 24.3048C28.1585 24.4089 25.3156 27.1743 25.6443 27.247C25.8571 27.299 27.0465 26.4778 27.8877 25.6981C28.2551 25.3654 28.5935 25.1159 28.6419 25.1573C28.7 25.1887 28.6903 25.2821 28.6128 25.3862C28.168 26.0203 27.2496 27.1743 26.9884 27.4342C26.3598 28.0684 25.7218 29.2537 26.0117 29.2537C26.1473 29.2537 29.0384 25.9684 29.309 25.5004C30.305 23.7954 30.5563 23.4837 30.7594 23.702C30.8272 23.7748 30.7209 24.0345 30.4404 24.5232C29.8892 25.4901 29.5605 26.3426 29.6764 26.4673C29.8214 26.6234 29.9376 26.509 30.2566 25.8851C30.6531 25.147 31.4749 24.097 31.8135 23.9098C31.9585 23.8267 32.529 23.702 33.0802 23.6395C34.1631 23.5251 34.4822 23.3795 34.1825 23.1509C34.0663 23.0573 33.6505 23.0157 32.8674 23.0157H31.7361L31.6008 22.7245C31.4461 22.4128 31.2912 21.685 31.1946 20.9053C31.1171 20.2919 30.9237 20.3023 30.8465 20.926C30.7594 21.6122 30.6241 21.6538 30.3147 21.0924C30.1697 20.8221 29.8795 20.1775 29.6764 19.6681C29.3671 18.8987 29.2896 18.5453 29.2027 17.6304C29.0384 15.7382 28.9803 15.5511 28.7191 16.0709Z" fill="white"/>
<path d="M41.7825 18.826C41.386 19.273 40.8446 19.8032 40.5836 20.0008C40.3321 20.1983 39.9647 20.5102 39.7713 20.6869C38.6883 21.6538 36.7931 22.8909 34.5596 24.0865C33.1574 24.8351 31.2912 26.114 30.9334 26.5712C30.7112 26.8415 30.6822 28.0579 30.8949 28.1412C30.9625 28.1723 31.2333 27.9851 31.4943 27.7254C31.9488 27.2679 32.3741 27.0287 34.5306 25.9787C35.0817 25.7084 35.6426 25.4173 35.7585 25.3237C35.9713 25.1887 36.0197 25.1887 36.329 25.3654C36.5321 25.4901 36.6868 25.6668 36.7158 25.8228C36.8124 26.3218 36.9768 26.5506 37.3249 26.6648C37.5183 26.7273 37.731 26.8312 37.7988 26.8937C37.9535 27.0287 37.9438 27.3926 37.7697 27.6629C37.586 27.9437 37.6441 28.0995 38.0597 28.4012C38.4078 28.6609 38.6787 28.6506 39.0074 28.3387C39.2008 28.1515 39.2104 27.7981 39.0655 26.9248C39.0074 26.5712 38.9398 26.197 38.9205 26.0723C38.9011 25.9579 38.7849 25.802 38.6593 25.7292C38.3112 25.5317 37.702 24.5023 37.7794 24.2426C37.8085 24.1281 38.0309 23.9409 38.2725 23.8267C38.5143 23.7123 38.959 23.4004 39.2685 23.1404C39.5779 22.8701 40.3999 22.3295 41.096 21.9448C42.1403 21.3523 42.3724 21.186 42.4303 20.9572C42.4593 20.8013 42.6333 20.3542 42.8171 19.9488C43.1845 19.1171 43.2426 18.4725 42.9623 18.2022C42.8655 18.0982 42.7205 18.0254 42.6527 18.0254C42.5755 18.0254 42.1887 18.3893 41.7825 18.826Z" fill="white"/>
<path d="M33.0802 27.8812C32.4128 28.2348 32.674 28.557 33.757 28.6818C34.1631 28.7234 34.3662 28.7026 34.6272 28.557C35.0624 28.3179 35.1396 27.9437 34.7721 27.7981C34.3662 27.6318 33.4573 27.6734 33.0802 27.8812Z" fill="white"/>
<path d="M28.4872 28.1723C28.0811 28.4115 27.9361 28.6298 28.0617 28.8065C28.1198 28.8793 28.2357 28.9418 28.3035 28.9418C28.3807 28.9418 28.5548 29.0768 28.7 29.2537C29.0287 29.6487 29.2511 29.6487 29.6089 29.2329C29.9182 28.8585 29.9763 28.4218 29.7442 28.214C29.5121 28.0059 28.8159 27.9851 28.4872 28.1723Z" fill="white"/>
<path d="M35.159 28.6921C34.6756 28.8898 34.2404 29.3265 34.2404 29.6382C34.2404 29.7734 34.3372 29.9812 34.4434 30.0957C34.6368 30.3037 34.7143 30.314 35.5845 30.2517C36.3871 30.1893 36.5803 30.1996 36.9477 30.3765C37.1895 30.4907 37.4701 30.6779 37.5667 30.8026C37.8182 31.1042 38.1662 31.0834 38.3596 30.761C38.7561 30.1062 38.0501 29.004 37.0446 28.7129C36.3581 28.5051 35.6426 28.4946 35.159 28.6921Z" fill="white"/>
<path d="M31.4846 28.8065C30.9431 28.8793 30.2082 29.1496 29.957 29.3679C29.7442 29.5446 29.6958 29.6695 29.6958 30.0437C29.6958 30.5115 29.8892 31.1457 30.0632 31.2704C30.1213 31.3018 30.3535 31.2498 30.5854 31.1457C30.8949 31.0001 31.2912 30.9482 32.1616 30.9274C33.5442 30.9065 33.757 30.8131 33.757 30.1996C33.757 29.8879 33.6892 29.7318 33.4476 29.472C33.0415 29.0457 32.1035 28.7234 31.4846 28.8065Z" fill="white"/>
<path d="M27.0368 29.7943C26.505 30.0854 26.157 30.4493 25.7799 31.1249C25.3931 31.8112 25.2769 32.3518 25.4509 32.6948C25.6058 33.0276 25.7218 33.1004 26.0892 33.1004C26.331 33.1004 26.476 33.0068 26.7854 32.6221C27.0078 32.3518 27.1818 32.1023 27.1818 32.0501C27.1818 31.884 27.8393 31.5512 28.3132 31.4784C29.0577 31.3745 29.1543 31.2704 29.0771 30.6571C28.9706 29.9085 28.6129 29.5654 27.9361 29.5654C27.617 29.5759 27.2784 29.659 27.0368 29.7943Z" fill="white"/>
<path d="M39.1042 29.6695C38.5627 29.8982 38.7658 30.5426 39.5682 31.177C40.1678 31.6551 40.5739 31.759 40.7962 31.5201C41.0864 31.2082 40.777 30.4179 40.1968 29.9918C39.7326 29.6487 39.3942 29.5551 39.1042 29.6695Z" fill="white"/>
<path d="M33.6217 31.2185C33.0608 31.4679 32.6353 31.8735 32.5484 32.2479C32.4709 32.5909 32.5484 32.6532 33.1961 32.726C34.3469 32.8715 34.8593 32.9962 35.1977 33.2354C36.155 33.8904 36.7062 33.9632 37.0155 33.4537C37.1702 33.1938 37.1702 33.1626 36.9383 32.7051C36.3966 31.6032 35.7488 31.1146 34.724 31.0521C34.2597 31.0315 33.9697 31.0729 33.6217 31.2185Z" fill="white"/>
<path d="M37.5473 31.5929C36.9574 31.8735 37.0833 32.3309 37.8085 32.5701C38.0212 32.6324 38.4175 32.8507 38.6883 33.0482C39.3748 33.5473 40.0034 33.776 40.4578 33.6824C40.6512 33.6409 40.8155 33.5576 40.8155 33.4849C40.8155 33.2979 40.2837 32.3518 40.0613 32.1334C39.8003 31.8735 38.6206 31.4368 38.2049 31.4473C38.0212 31.4473 37.7213 31.5096 37.5473 31.5929Z" fill="white"/>
<path d="M28.7288 31.9462C28.4388 32.0398 28.1004 32.1854 27.9748 32.2582C27.4525 32.5596 27.2109 33.5265 27.5202 34.0048C27.7233 34.3165 28.4679 34.6598 28.9319 34.6598C29.2896 34.6598 30.0826 34.4726 30.566 34.2646C31.214 33.9943 31.9101 32.6843 31.6201 32.3101C31.1946 31.759 29.7829 31.5823 28.7288 31.9462Z" fill="white"/>
<path d="M40.7189 32.0087C40.6512 32.0918 40.6221 32.2373 40.6608 32.3206C40.7383 32.5388 42.3046 33.6201 42.5464 33.6201C43.0298 33.6201 42.643 32.5701 41.9856 32.0918C41.5988 31.8112 40.9026 31.7695 40.7189 32.0087Z" fill="white"/>
<path d="M32.3647 33.3498C31.8038 33.5785 31.4943 33.8487 31.3783 34.2438C31.2333 34.7118 31.2912 34.8573 31.8038 35.3251C32.2195 35.6993 32.2775 35.7201 32.7803 35.6785C33.1768 35.6474 33.4476 35.5434 33.8054 35.294C34.2307 35.0029 34.3469 34.9612 34.7337 35.0132C35.3427 35.0963 35.6907 34.9509 35.6907 34.6076C35.6907 34.2543 35.4492 34.0256 34.6659 33.6096C33.902 33.2043 32.9931 33.1004 32.3647 33.3498Z" fill="white"/>
<path d="M25.2093 33.5162C24.2907 33.7448 23.9427 33.9943 23.9427 34.4101C23.9427 34.7949 24.1167 34.826 25.2093 34.6598C26.4082 34.4726 26.9594 33.9943 26.5435 33.5057C26.3501 33.2771 26.2148 33.2771 25.2093 33.5162Z" fill="white"/>
<path d="M37.3829 33.8801C36.9383 34.0671 36.6868 34.3062 36.6384 34.5973C36.6093 34.7846 36.8705 35.0029 37.7601 35.5538C38.1081 35.7618 39.9647 35.8346 40.2162 35.6371C40.4481 35.4602 40.4096 34.8676 40.1387 34.4829C40.0228 34.2959 39.7422 34.0671 39.5198 33.9735C38.9686 33.7345 37.8663 33.6824 37.3829 33.8801Z" fill="white"/>
<path d="M42.005 33.9943C41.9275 34.2126 42.4593 35.3251 42.8655 35.8137C43.2329 36.2399 43.465 36.1879 43.5038 35.6474C43.5519 34.8885 43.0008 34.0463 42.3434 33.8696C42.1403 33.8176 42.0628 33.8487 42.005 33.9943Z" fill="white"/>
<path d="M40.6899 34.4207C40.5643 34.5557 40.6221 34.7846 40.922 35.2418C41.212 35.6993 41.212 35.7201 41.096 36.2193C40.9896 36.6871 40.9896 36.7493 41.1539 36.947C41.386 37.2276 41.6956 37.2068 42.005 36.9054C42.5271 36.3854 42.4208 35.6682 41.7051 34.8468C41.3957 34.4934 41.2023 34.3479 41.0089 34.3479C40.8639 34.3479 40.7189 34.379 40.6899 34.4207Z" fill="white"/>
<path d="M26.2148 34.774C24.6967 35.2523 23.9136 35.7929 23.7202 36.5104C23.4397 37.5084 23.6428 37.7787 24.6485 37.7787C25.8377 37.7787 26.8916 37.2693 28.052 36.136C28.5066 35.689 28.5644 35.5851 28.4775 35.4187C28.1873 34.8885 26.9594 34.5349 26.2148 34.774Z" fill="white"/>
<path d="M29.4445 35.6057C28.4001 36.1985 27.8392 36.6559 27.7039 37.0093C27.5105 37.5084 27.5396 38.0177 27.7717 38.3401C27.9457 38.5793 28.0423 38.6104 28.5451 38.6104C29.1834 38.6104 29.8023 38.3713 30.6144 37.8202C30.8852 37.6332 31.4074 37.4043 31.7651 37.2901C32.1519 37.186 32.4806 37.0196 32.5387 36.9157C32.7512 36.5415 31.7554 35.8657 30.2179 35.3459C30.0826 35.3043 29.8214 35.3874 29.4445 35.6057Z" fill="white"/>
<path d="M34.5209 35.8449C34.1341 35.9904 33.6989 36.2921 33.4476 36.6038C33.2927 36.791 33.2927 36.8221 33.4379 37.0404C33.6217 37.3212 34.2791 37.6643 34.6465 37.6746C34.7915 37.6746 35.217 37.5499 35.5942 37.4043C36.2322 37.1446 36.3193 37.134 36.7352 37.2588C37.441 37.4563 38.3112 37.5084 38.4078 37.3524C38.6109 36.999 37.905 36.2504 37.0445 35.8968C36.4643 35.6579 35.072 35.6265 34.5209 35.8449Z" fill="white"/>
<path d="M38.843 36.3543C38.5724 36.5726 38.7271 36.9054 39.2976 37.3107C39.6553 37.5707 39.9066 37.6746 40.1678 37.6746C40.6124 37.6746 40.7189 37.4668 40.4868 37.0093C40.1581 36.344 39.2879 36.0009 38.843 36.3543Z" fill="white"/>
<path d="M41.531 37.5188C41.3185 37.6851 41.2701 37.5499 42.1209 39.0782C42.8558 40.3882 43.1073 40.6168 43.3394 40.149C43.4941 39.8268 43.3779 38.7974 43.1073 38.2257C42.7689 37.4979 41.9953 37.1446 41.531 37.5188Z" fill="white"/>
<path d="M31.5814 37.7682C31.1268 37.9865 30.4694 38.7248 30.1889 39.3277C29.9182 39.8788 29.9279 39.9724 30.2857 40.3362C30.5563 40.6168 30.6434 40.6377 31.417 40.6688C31.8811 40.6896 32.5387 40.6585 32.8868 40.6065C33.5055 40.5026 34.5981 40.1282 34.7528 39.9724C34.8399 39.8788 34.5015 38.9015 34.2307 38.496C34.1244 38.3401 33.7763 38.0698 33.4476 37.8929C32.7512 37.5187 32.1713 37.4771 31.5814 37.7682Z" fill="white"/>
<path d="M35.6714 37.8721C35.3136 37.9971 34.724 38.3921 34.724 38.5168C34.724 38.5585 34.8496 38.704 35.0043 38.8287C35.1493 38.9429 35.4492 39.2757 35.6523 39.5668C36.155 40.2843 36.5612 40.461 37.6923 40.461C38.8043 40.4713 38.8721 40.409 38.6399 39.6085C38.3984 38.7974 38.1759 38.4543 37.6826 38.1426C37.2089 37.841 36.155 37.706 35.6714 37.8721Z" fill="white"/>
<path d="M25.683 38.184C25.2672 38.3816 24.4744 39.2549 24.2133 39.7955C23.9715 40.2946 23.8942 40.6896 23.9908 40.9599C24.1264 41.3343 24.3873 41.2615 24.8516 40.7416C25.1222 40.4298 25.393 40.2426 25.6637 40.1699C26.8822 39.8268 27.1818 39.5773 27.1818 38.9015C27.1818 38.2465 26.9787 37.9865 26.476 37.9971C26.2535 37.9971 25.8958 38.0904 25.683 38.184Z" fill="white"/>
<path d="M39.2782 38.1218C38.814 38.3816 38.8043 38.5688 39.2298 39.0471C39.4523 39.2965 39.6553 39.6188 39.6938 39.7749C39.7229 39.9307 39.9163 40.2529 40.129 40.4818C40.4868 40.8871 40.5062 40.8976 41.1733 40.8976C41.9662 40.8976 42.1209 40.7832 42.0243 40.2529C41.9469 39.8476 41.5988 39.1821 41.2314 38.704C40.748 38.0904 39.8294 37.8202 39.2782 38.1218Z" fill="white"/>
<path d="M27.8683 39.5773C26.911 40.1074 26.4179 40.596 26.0698 41.3654C25.8377 41.8643 25.828 41.9579 25.9248 42.3635C26.0408 42.821 26.3501 43.2888 26.5435 43.2888C26.6984 43.2888 28.9125 41.3238 29.1446 40.9807C29.3574 40.6793 29.4349 39.5357 29.2608 39.3485C29.0093 39.0885 28.6709 39.1407 27.8683 39.5773Z" fill="white"/>
<path d="M33.4573 41.0846C33.2252 41.251 32.7127 41.7085 32.3356 42.114C31.678 42.7896 31.6298 42.8729 31.6298 43.2785C31.6298 43.8813 31.7457 44.0582 32.3163 44.3907C32.5869 44.5571 32.8674 44.8171 32.9446 44.973C33.1284 45.3471 33.5152 45.5552 34.1922 45.6383L34.7336 45.711L35.188 45.2018C35.7875 44.526 36.2225 43.611 36.1356 43.1743C36.0291 42.6129 34.3853 40.7935 33.9697 40.7935C33.931 40.7935 33.6989 40.9288 33.4573 41.0846Z" fill="white"/>
<path d="M29.338 41.1991C29.019 41.4174 28.8547 41.6357 28.0907 42.9146C27.5202 43.871 27.5202 44.1621 28.0907 44.6715C28.3325 44.8794 28.5644 45.0563 28.6128 45.0563C28.7966 45.0563 30.1407 43.9541 30.8562 43.2263C31.707 42.3532 32.1616 41.6982 32.0841 41.4799C32.0069 41.2718 31.4558 41.1263 30.4694 41.0535C29.7442 40.9912 29.6089 41.0118 29.338 41.1991Z" fill="white"/>
<path d="M39.4232 41.0951C39.3458 41.2302 39.4619 41.4902 39.9937 42.301C40.5062 43.0807 40.6705 43.4446 40.7577 43.9332C40.8252 44.3493 41.2604 44.8899 41.5988 45.0041C41.9469 45.129 42.2853 44.661 42.3434 43.9854C42.4014 43.2471 42.2371 42.7377 41.7728 42.1971C41.2217 41.5629 39.5973 40.7935 39.4232 41.0951Z" fill="white"/>
<path d="M35.8938 41.2824C35.6907 41.459 35.6811 41.511 35.7876 41.6982C35.8648 41.8124 36.0485 41.9996 36.2129 42.1035C36.8221 42.4882 37.8857 43.4032 38.1856 43.8085C38.5821 44.3285 39.2685 44.7652 39.6263 44.7235C39.8872 44.6924 39.8969 44.661 39.926 44.0996C39.9647 43.3927 39.665 42.6754 39.1427 42.1763C38.2434 41.3238 36.4159 40.8249 35.8938 41.2824Z" fill="white"/>
<path d="M26.5435 43.7566C25.9248 44.4532 25.683 45.5032 26.0214 46.0854C26.2051 46.3974 26.2632 46.4285 26.5726 46.3765C26.9884 46.3038 27.3171 46.0749 27.5396 45.7216C27.6942 45.4616 27.6942 45.4304 27.4428 44.9107C27.2205 44.4635 27.1915 44.2971 27.2496 43.8293C27.2978 43.3512 27.2881 43.2888 27.1334 43.2888C27.0368 43.2888 26.766 43.4966 26.5435 43.7566Z" fill="white"/>
<path d="M36.5612 44.1205C36.2613 44.474 35.9519 45.3368 36.0003 45.7007C36.0197 45.836 36.2322 46.0749 36.5515 46.3141C37.0252 46.6677 37.3152 47.0002 37.8472 47.8113C38.1759 48.3102 38.7077 48.0504 38.7174 47.3849C38.7174 46.283 38.5627 45.4616 38.2725 44.9938C37.9728 44.5052 37.2089 43.8085 36.9768 43.8085C36.8996 43.8085 36.7062 43.9541 36.5612 44.1205Z" fill="white"/>
<path d="M30.6725 44.266C30.3147 44.3907 30.247 44.4843 30.0923 45.129C30.0342 45.368 29.8408 45.7424 29.6571 45.971C29.3187 46.418 29.0287 47.2913 29.1737 47.4369C29.2221 47.4888 29.5895 47.6032 29.9957 47.7072C30.8368 47.9152 30.7594 47.936 31.9779 47.073C32.6643 46.5741 32.9834 46.1999 32.9834 45.8879C32.9834 45.7632 31.5717 44.4635 31.243 44.2765C31.0593 44.1724 30.9237 44.1724 30.6725 44.266Z" fill="white"/>
<path d="M38.8817 45.2121C38.8817 45.7838 39.4039 47.3746 39.7132 47.728C40.071 48.1335 40.129 48.1438 40.4578 47.8632C40.7383 47.6241 40.8639 47.1146 40.7673 46.6363C40.6608 46.0957 39.491 44.9521 39.0558 44.9521C38.9301 44.9521 38.8817 45.0354 38.8817 45.2121Z" fill="white"/>
<path d="M28.3904 45.576C28.2841 45.6176 27.9651 45.9191 27.6846 46.231C26.9981 46.9796 26.8822 47.4993 27.2012 48.4038C27.3171 48.7366 27.4912 48.8196 27.8102 48.6949C28.1295 48.5597 28.3035 48.2479 28.4969 47.416C28.5838 47.021 28.7579 46.5429 28.8837 46.3452C29.1447 45.9399 29.164 45.7735 28.9997 45.5968C28.8643 45.4513 28.6709 45.4513 28.3904 45.576Z" fill="white"/>
<path d="M33.757 46.366C33.0802 46.678 32.7416 47.1874 32.645 48.0296C32.5869 48.4766 32.6159 48.6013 32.8674 49.0171C33.2058 49.5785 33.7473 49.8385 34.5788 49.8385C35.3911 49.8385 35.7876 49.3602 35.7876 48.3621C35.7876 47.7177 35.5554 47.1252 35.1108 46.5844C34.8593 46.2726 34.7337 46.1999 34.4434 46.1999C34.25 46.2102 33.9407 46.283 33.757 46.366Z" fill="white"/>
<path d="M36.2419 47.416C36.2034 47.4474 36.1744 47.676 36.1744 47.9049C36.1841 48.4557 37.0058 50.5352 37.3057 50.743C37.4989 50.8885 37.5376 50.8782 37.7504 50.6286C38.0116 50.3271 38.1082 49.9529 38.1082 49.2146C38.1082 48.726 38.0985 48.7052 37.3636 48.0296C36.6578 47.3849 36.3966 47.2499 36.2419 47.416Z" fill="white"/>
<path d="M31.2527 48.2166C30.9721 48.4869 30.7209 48.6949 30.6821 48.6949C30.6434 48.6949 30.4016 48.5805 30.1407 48.4349C29.5702 48.1232 29.2993 48.1127 29.0865 48.3621C28.9512 48.5182 28.9415 48.6221 29.0287 48.9549C29.164 49.4643 29.5798 50.1088 30.0439 50.5038C30.3534 50.7741 30.45 50.7949 30.9046 50.743C31.7264 50.6494 31.7845 50.5871 32.0164 49.4955C32.2388 48.4557 32.2001 47.8424 31.9004 47.7799C31.8135 47.7593 31.5233 47.9568 31.2527 48.2166Z" fill="white"/>
<path d="M35.1493 50.1399C34.8206 50.3063 34.5306 50.4935 34.4918 50.5558C34.4047 50.7013 34.724 51.6474 34.9656 51.9802C35.1108 52.1777 35.2848 52.2608 35.6038 52.3024C36.01 52.3544 36.0679 52.3336 36.3 52.0218C36.6384 51.5852 36.7062 51.2627 36.5612 50.743C36.3 49.7554 36.0969 49.6721 35.1493 50.1399Z" fill="white"/>
<path d="M32.3066 50.1505C32.0069 50.4727 32.0454 51.138 32.4032 51.7411C32.7321 52.313 32.9158 52.3441 33.5636 51.9905C33.9794 51.7722 33.9988 51.7411 34.0276 51.2733C34.0663 50.6391 33.931 50.3896 33.4379 50.1399C32.9158 49.8905 32.5484 49.8905 32.3066 50.1505Z" fill="white"/>
<path d="M31.1075 51.2524C30.9334 51.4291 30.9046 51.9802 31.0399 52.3649C31.1559 52.6871 31.6877 52.9158 31.8907 52.7288C32.0841 52.5519 31.9876 51.9905 31.678 51.4916C31.4074 51.0446 31.3299 51.0133 31.1075 51.2524Z" fill="white"/>
<path d="M33.5636 52.3649C33.3218 52.4896 33.109 52.6768 33.0995 52.7807C33.0318 53.1341 33.815 53.8202 34.1438 53.706C34.395 53.6227 34.8206 53.1341 34.8206 52.9263C34.8206 52.708 34.3178 52.1257 34.1244 52.1257C34.0566 52.1361 33.8054 52.2402 33.5636 52.3649Z" fill="white"/>
<path d="M54.7099 43.8153C54.0471 43.8149 53.7159 43.4639 53.7164 42.7625L53.7249 29.9466C53.7251 29.5538 53.7974 29.2802 53.9417 29.1261C54.1002 28.9718 54.3452 28.8948 54.6766 28.8951C55.5988 28.8955 56.0597 29.4361 56.0588 30.5163L56.0507 42.7009L61.2596 42.7041L61.268 30.1619C61.2684 29.6568 61.3767 29.3201 61.5931 29.152C61.8236 28.9838 62.1622 28.8999 62.6089 28.9001C63.2718 28.9005 63.603 29.2515 63.6025 29.953L63.594 42.7057L68.8029 42.709L68.8113 30.2719C68.8117 29.7669 68.92 29.4161 69.1361 29.2199C69.3669 29.0095 69.7055 28.9045 70.1522 28.9049C70.815 28.9054 71.1462 29.2563 71.1458 29.9578L71.1372 42.7736C71.1368 43.4751 70.8051 43.8256 70.1423 43.8252L54.7099 43.8153ZM84.2538 42.8451C84.2535 43.1537 84.1957 43.3993 84.0804 43.5814C83.9649 43.7498 83.7344 43.8337 83.3885 43.8335C82.913 43.8333 82.5602 43.7068 82.3297 43.4541C82.1138 43.1875 82.0059 42.7383 82.0064 42.107L82.0104 36.0884L77.1209 43.2824C76.8901 43.647 76.4793 43.8291 75.8885 43.8287C75.5427 43.8285 75.3121 43.7443 75.1971 43.5757C75.0818 43.3933 75.0244 43.1478 75.0246 42.8392L75.0304 34.2532C75.0307 33.9305 75.0883 33.685 75.2038 33.5166C75.3191 33.3485 75.5499 33.2643 75.8957 33.2646C76.3712 33.265 76.7168 33.3985 76.9329 33.6651C77.1633 33.9178 77.2781 34.3597 77.2778 34.991L77.2736 41.0938L82.1417 33.9C82.3004 33.6615 82.4661 33.5004 82.639 33.4163C82.8122 33.3183 83.0643 33.2692 83.3957 33.2694C83.7416 33.2696 83.9719 33.354 84.0872 33.5223C84.2022 33.6909 84.2598 33.9364 84.2596 34.2591L84.2538 42.8451ZM88.5741 43.8368C88.2283 43.8366 87.9977 43.7524 87.8827 43.5838C87.7674 43.4014 87.71 43.1559 87.7102 42.8473L87.7161 34.2613C87.7161 33.9386 87.7739 33.6931 87.8894 33.5248C88.0047 33.3566 88.2352 33.2725 88.5811 33.2727C89.0566 33.2731 89.4024 33.4066 89.6183 33.6732C89.8489 33.9259 89.9637 34.3678 89.9632 34.9992L89.9581 42.8486L93.3082 42.8508L93.3138 34.6015C93.3141 34.0544 93.408 33.6966 93.5955 33.5285C93.7972 33.3604 94.071 33.2762 94.4168 33.2764C94.8059 33.2766 95.0869 33.361 95.2598 33.5296C95.4469 33.6979 95.5403 34.0559 95.5401 34.6031L95.5345 42.8523L98.8846 42.8543L98.89 34.7734C98.8905 34.1421 98.9988 33.7354 99.2151 33.553C99.4457 33.3709 99.7987 33.2799 100.274 33.2801C100.62 33.2803 100.851 33.3647 100.966 33.5331C101.081 33.7017 101.138 33.9472 101.138 34.2699L101.132 42.8558C101.132 43.1645 101.074 43.41 100.959 43.5922C100.844 43.7605 100.613 43.8445 100.267 43.8443L88.5741 43.8368ZM106.847 37.8088L107.561 37.8094L111.346 34.1502C111.677 33.8417 111.958 33.6243 112.189 33.4982C112.434 33.3582 112.686 33.288 112.945 33.2882C113.162 33.2885 113.313 33.3376 113.399 33.436C113.5 33.5342 113.55 33.6604 113.55 33.8148C113.55 34.0954 113.42 34.3479 113.161 34.5721C112.916 34.7824 112.584 35.0206 112.166 35.287C111.748 35.5393 111.294 35.8685 110.804 36.2752C110.472 36.5555 110.162 36.8289 109.874 37.0952C109.6 37.3476 109.304 37.6141 108.987 37.8945L113.242 42.7793C113.357 42.9196 113.45 43.0461 113.522 43.1583C113.595 43.2566 113.63 43.3548 113.63 43.453C113.63 43.5512 113.573 43.6424 113.457 43.7265C113.356 43.8105 113.068 43.8526 112.593 43.8521C112.074 43.8519 111.706 43.7956 111.49 43.6831C111.289 43.5566 111.109 43.3953 110.95 43.1987L107.365 38.7983L106.847 38.7978L106.844 42.3543C106.844 42.9856 106.728 43.3925 106.498 43.5746C106.281 43.757 105.936 43.848 105.46 43.8475C105.114 43.8473 104.884 43.7631 104.769 43.5946C104.653 43.4122 104.596 43.1667 104.596 42.858L104.602 34.272C104.602 33.9494 104.66 33.7039 104.775 33.5355C104.891 33.3674 105.121 33.2832 105.467 33.2834C105.942 33.2838 106.288 33.4173 106.504 33.6839C106.735 33.9367 106.85 34.3786 106.849 35.0099L106.847 37.8088ZM125.012 42.871C125.012 43.1796 124.954 43.4251 124.839 43.6075C124.723 43.7756 124.493 43.8598 124.147 43.8596C123.671 43.8592 123.319 43.7327 123.088 43.4801C122.872 43.2134 122.764 42.7644 122.765 42.1331L122.769 36.1145L117.879 43.3085C117.648 43.673 117.238 43.8552 116.647 43.8548C116.301 43.8546 116.071 43.7702 115.955 43.6018C115.84 43.4194 115.783 43.1737 115.783 42.865L115.789 34.2791C115.789 33.9564 115.847 33.7111 115.962 33.5427C116.078 33.3744 116.308 33.2904 116.654 33.2906C117.13 33.2909 117.475 33.4244 117.691 33.6911C117.922 33.9439 118.037 34.3858 118.036 35.0171L118.032 41.1199L122.9 33.9259C123.059 33.6876 123.224 33.5263 123.398 33.4423C123.57 33.3441 123.823 33.2952 124.154 33.2955C124.5 33.2957 124.73 33.3799 124.846 33.5484C124.961 33.7168 125.018 33.9623 125.018 34.285L125.012 42.871Z" fill="white"/>
</g>
</svg>
