<svg width="103" height="103" viewBox="0 0 103 103" fill="none" xmlns="http://www.w3.org/2000/svg">
<circle cx="51.5" cy="51.5" r="51" fill="white" stroke="black"/>
<path d="M79.664 70.7119H71.2147C70.2089 70.7119 69.203 70.1084 68.5995 69.3037L67.7948 67.9961C67.2919 67.3926 62.6649 62.0615 59.8485 60.3516C58.7421 59.748 58.3397 59.8486 58.3397 59.8486C58.3397 59.8486 58.2392 60.1504 58.2392 60.251V65.582C58.2392 68.3984 55.9257 70.6113 53.2099 70.6113H51.1981C50.6952 70.6113 39.4296 70.4102 30.4774 57.0322C23.4364 46.5713 21.1229 39.7314 20.3183 35.8086C20.1171 34.9033 20.4188 33.998 20.9218 33.2939C21.5253 32.5898 22.33 32.1875 23.2353 32.1875H30.3769C31.6845 32.1875 32.7909 32.9922 33.1933 34.2998C33.9979 36.6133 36.0097 42.5479 38.4237 46.3701C41.9442 52.2041 43.3524 52.707 43.7548 52.707C44.0565 52.2041 43.956 50.1924 43.956 48.8848C43.956 48.2813 43.956 47.7783 43.956 47.1748C43.956 46.7725 43.956 46.2695 43.956 45.7666C43.956 43.252 44.0565 39.832 43.0507 38.2227L41.039 35.3057C40.6366 34.7021 40.536 33.8975 40.9384 33.1934C41.2401 32.4893 41.9442 32.0869 42.7489 32.0869H54.2157C55.9257 32.0869 57.2333 33.4951 57.2333 35.1045V49.5889C57.2333 49.6895 57.3339 49.79 57.3339 49.79C57.3339 49.79 57.7362 49.79 58.8427 48.7842C61.1562 46.4707 64.0731 42.1455 66.9901 36.2109L67.996 33.8975C68.4989 32.791 69.6054 32.0869 70.8124 32.0869H78.2558C79.2616 32.0869 80.1669 32.5898 80.7704 33.3945C81.3739 34.1992 81.4745 35.3057 81.0722 36.2109L80.2675 38.3232V38.4238C80.1669 38.625 77.4511 43.9561 74.6347 47.8789C72.4218 50.8965 71.5165 52.3047 71.7177 52.8076C71.9188 53.1094 73.2265 54.6182 74.5341 55.8252C76.9481 58.3398 79.9657 61.5586 81.0722 63.6709C81.5751 64.5762 82.078 65.3809 82.3798 66.085C82.8827 66.9902 82.8827 68.0967 82.2792 69.1025C81.6757 70.209 80.7704 70.7119 79.664 70.7119ZM58.5409 57.8369C59.245 57.8369 60.0497 58.1387 60.955 58.6416C64.2743 60.5527 69.3036 66.4873 69.5048 66.7891L69.6054 66.8897L70.4101 68.1973C70.6112 68.499 70.913 68.7002 71.3153 68.7002H79.664C80.1669 68.7002 80.4687 68.3984 80.5692 68.1973C80.6698 68.0967 80.871 67.6943 80.5692 67.1914C80.1669 66.4873 79.7645 65.6826 79.2616 64.7773C78.2558 62.9668 75.2382 59.748 73.0253 57.334C70.8124 54.9199 70.0077 54.1152 69.8065 53.6123C69.203 52.1035 70.1083 50.8965 73.0253 46.873C75.6405 43.252 78.1552 38.3232 78.4569 37.7197L79.2616 35.6074C79.3622 35.3057 79.3622 34.9033 79.161 34.7021C78.9599 34.4004 78.6581 34.2998 78.3563 34.2998H70.913C70.5106 34.2998 70.1083 34.501 70.0077 34.9033L69.0019 37.3174C66.789 41.6426 63.5702 47.376 60.4521 50.4941C59.1444 51.8018 57.9374 52.2041 56.9315 51.9023C55.7245 51.5 55.4228 50.1924 55.4228 50.0918C55.4228 49.9912 55.4228 49.9912 55.4228 49.8906V35.3057C55.4228 34.7021 54.9198 34.2998 54.4169 34.2998H42.7489L44.7606 37.2168C46.0683 39.3291 46.0683 43.0508 45.9677 45.9678C45.9677 46.4707 45.9677 46.873 45.9677 47.2754C45.9677 47.7783 45.9677 48.3818 45.9677 48.8848C46.0683 51.7012 46.0683 54.3164 44.2577 54.7188C42.246 55.1211 40.1337 53.0088 36.7138 47.4766C34.4003 43.5537 32.3886 38.0215 31.3827 35.0039C31.2821 34.6016 30.8798 34.2998 30.3769 34.2998H23.3358C23.0341 34.2998 22.7323 34.4004 22.5312 34.7021C22.33 34.9033 22.33 35.2051 22.33 35.5068C23.0341 39.2285 25.3476 45.7666 32.1874 56.0264C40.536 68.499 51.0976 68.7002 51.1981 68.7002H53.2099C54.9198 68.7002 56.2274 67.292 56.2274 65.6826V60.3516C56.2274 60.251 56.2274 58.8428 57.3339 58.1387C57.7362 57.9375 58.1386 57.8369 58.5409 57.8369Z" fill="black"/>
</svg>
